<?xml version="1.0" encoding="UTF-8"?>
<svg xmlns="http://www.w3.org/2000/svg" width="500" height="500" viewBox="0 0 500 500">

<rect x="0" y="0" width="500" height="500" fill="#FFFFFF"/>
<path d="M 224.1379310344828 68.96551724137932 L 241.37931034482762 68.96551724137932 L 241.37931034482762 86.20689655172414 L 224.1379310344828 86.20689655172414 Z M 224.1379310344828 86.20689655172414 L 241.37931034482762 86.20689655172414 L 241.37931034482762 103.44827586206897 L 224.1379310344828 103.44827586206897 Z M 241.37931034482762 86.20689655172414 L 258.62068965517244 86.20689655172414 L 258.62068965517244 103.44827586206897 L 241.37931034482762 103.44827586206897 Z M 275.86206896551727 86.20689655172414 L 293.1034482758621 86.20689655172414 L 293.1034482758621 103.44827586206897 L 275.86206896551727 103.44827586206897 Z M 206.89655172413796 103.44827586206898 L 224.1379310344828 103.44827586206898 L 224.1379310344828 120.68965517241381 L 206.89655172413796 120.68965517241381 Z M 224.1379310344828 103.44827586206898 L 241.37931034482762 103.44827586206898 L 241.37931034482762 120.68965517241381 L 224.1379310344828 120.68965517241381 Z M 241.37931034482762 103.44827586206898 L 258.62068965517244 103.44827586206898 L 258.62068965517244 120.68965517241381 L 241.37931034482762 120.68965517241381 Z M 275.86206896551727 103.44827586206898 L 293.1034482758621 103.44827586206898 L 293.1034482758621 120.68965517241381 L 275.86206896551727 120.68965517241381 Z M 206.89655172413796 120.68965517241381 L 224.1379310344828 120.68965517241381 L 224.1379310344828 137.93103448275863 L 206.89655172413796 137.93103448275863 Z M 241.37931034482762 120.68965517241381 L 258.62068965517244 120.68965517241381 L 258.62068965517244 137.93103448275863 L 241.37931034482762 137.93103448275863 Z M 206.89655172413796 137.93103448275863 L 224.1379310344828 137.93103448275863 L 224.1379310344828 155.17241379310346 L 206.89655172413796 155.17241379310346 Z M 224.1379310344828 137.93103448275863 L 241.37931034482762 137.93103448275863 L 241.37931034482762 155.17241379310346 L 224.1379310344828 155.17241379310346 Z M 258.62068965517244 137.93103448275863 L 275.86206896551727 137.93103448275863 L 275.86206896551727 155.17241379310346 L 258.62068965517244 155.17241379310346 Z M 275.86206896551727 137.93103448275863 L 293.1034482758621 137.93103448275863 L 293.1034482758621 155.17241379310346 L 275.86206896551727 155.17241379310346 Z M 206.89655172413796 155.17241379310346 L 224.1379310344828 155.17241379310346 L 224.1379310344828 172.41379310344828 L 206.89655172413796 172.41379310344828 Z M 275.86206896551727 155.17241379310346 L 293.1034482758621 155.17241379310346 L 293.1034482758621 172.41379310344828 L 275.86206896551727 172.41379310344828 Z M 206.89655172413796 172.4137931034483 L 224.1379310344828 172.4137931034483 L 224.1379310344828 189.65517241379314 L 206.89655172413796 189.65517241379314 Z M 241.37931034482762 172.4137931034483 L 258.62068965517244 172.4137931034483 L 258.62068965517244 189.65517241379314 L 241.37931034482762 189.65517241379314 Z M 275.86206896551727 172.4137931034483 L 293.1034482758621 172.4137931034483 L 293.1034482758621 189.65517241379314 L 275.86206896551727 189.65517241379314 Z M 206.89655172413796 189.65517241379314 L 224.1379310344828 189.65517241379314 L 224.1379310344828 206.89655172413796 L 206.89655172413796 206.89655172413796 Z M 224.1379310344828 189.65517241379314 L 241.37931034482762 189.65517241379314 L 241.37931034482762 206.89655172413796 L 224.1379310344828 206.89655172413796 Z M 258.62068965517244 189.65517241379314 L 275.86206896551727 189.65517241379314 L 275.86206896551727 206.89655172413796 L 258.62068965517244 206.89655172413796 Z M 275.86206896551727 189.65517241379314 L 293.1034482758621 189.65517241379314 L 293.1034482758621 206.89655172413796 L 275.86206896551727 206.89655172413796 Z M 68.96551724137932 206.89655172413796 L 86.20689655172414 206.89655172413796 L 86.20689655172414 224.1379310344828 L 68.96551724137932 224.1379310344828 Z M 103.44827586206898 206.89655172413796 L 120.68965517241381 206.89655172413796 L 120.68965517241381 224.1379310344828 L 103.44827586206898 224.1379310344828 Z M 120.68965517241381 206.89655172413796 L 137.93103448275863 206.89655172413796 L 137.93103448275863 224.1379310344828 L 120.68965517241381 224.1379310344828 Z M 137.93103448275863 206.89655172413796 L 155.17241379310346 206.89655172413796 L 155.17241379310346 224.1379310344828 L 137.93103448275863 224.1379310344828 Z M 155.17241379310346 206.89655172413796 L 172.41379310344828 206.89655172413796 L 172.41379310344828 224.1379310344828 L 155.17241379310346 224.1379310344828 Z M 172.4137931034483 206.89655172413796 L 189.65517241379314 206.89655172413796 L 189.65517241379314 224.1379310344828 L 172.4137931034483 224.1379310344828 Z M 241.37931034482762 206.89655172413796 L 258.62068965517244 206.89655172413796 L 258.62068965517244 224.1379310344828 L 241.37931034482762 224.1379310344828 Z M 275.86206896551727 206.89655172413796 L 293.1034482758621 206.89655172413796 L 293.1034482758621 224.1379310344828 L 275.86206896551727 224.1379310344828 Z M 310.3448275862069 206.89655172413796 L 327.58620689655174 206.89655172413796 L 327.58620689655174 224.1379310344828 L 310.3448275862069 224.1379310344828 Z M 327.58620689655174 206.89655172413796 L 344.82758620689657 206.89655172413796 L 344.82758620689657 224.1379310344828 L 327.58620689655174 224.1379310344828 Z M 344.82758620689657 206.89655172413796 L 362.0689655172414 206.89655172413796 L 362.0689655172414 224.1379310344828 L 344.82758620689657 224.1379310344828 Z M 362.0689655172414 206.89655172413796 L 379.3103448275862 206.89655172413796 L 379.3103448275862 224.1379310344828 L 362.0689655172414 224.1379310344828 Z M 379.3103448275862 206.89655172413796 L 396.55172413793105 206.89655172413796 L 396.55172413793105 224.1379310344828 L 379.3103448275862 224.1379310344828 Z M 86.20689655172414 224.1379310344828 L 103.44827586206897 224.1379310344828 L 103.44827586206897 241.37931034482762 L 86.20689655172414 241.37931034482762 Z M 103.44827586206898 224.1379310344828 L 120.68965517241381 224.1379310344828 L 120.68965517241381 241.37931034482762 L 103.44827586206898 241.37931034482762 Z M 120.68965517241381 224.1379310344828 L 137.93103448275863 224.1379310344828 L 137.93103448275863 241.37931034482762 L 120.68965517241381 241.37931034482762 Z M 137.93103448275863 224.1379310344828 L 155.17241379310346 224.1379310344828 L 155.17241379310346 241.37931034482762 L 137.93103448275863 241.37931034482762 Z M 189.65517241379314 224.1379310344828 L 206.89655172413796 224.1379310344828 L 206.89655172413796 241.37931034482762 L 189.65517241379314 241.37931034482762 Z M 241.37931034482762 224.1379310344828 L 258.62068965517244 224.1379310344828 L 258.62068965517244 241.37931034482762 L 241.37931034482762 241.37931034482762 Z M 275.86206896551727 224.1379310344828 L 293.1034482758621 224.1379310344828 L 293.1034482758621 241.37931034482762 L 275.86206896551727 241.37931034482762 Z M 293.1034482758621 224.1379310344828 L 310.3448275862069 224.1379310344828 L 310.3448275862069 241.37931034482762 L 293.1034482758621 241.37931034482762 Z M 327.58620689655174 224.1379310344828 L 344.82758620689657 224.1379310344828 L 344.82758620689657 241.37931034482762 L 327.58620689655174 241.37931034482762 Z M 344.82758620689657 224.1379310344828 L 362.0689655172414 224.1379310344828 L 362.0689655172414 241.37931034482762 L 344.82758620689657 241.37931034482762 Z M 362.0689655172414 224.1379310344828 L 379.3103448275862 224.1379310344828 L 379.3103448275862 241.37931034482762 L 362.0689655172414 241.37931034482762 Z M 379.3103448275862 224.1379310344828 L 396.55172413793105 224.1379310344828 L 396.55172413793105 241.37931034482762 L 379.3103448275862 241.37931034482762 Z M 413.7931034482759 224.1379310344828 L 431.0344827586207 224.1379310344828 L 431.0344827586207 241.37931034482762 L 413.7931034482759 241.37931034482762 Z M 68.96551724137932 241.37931034482762 L 86.20689655172414 241.37931034482762 L 86.20689655172414 258.62068965517244 L 68.96551724137932 258.62068965517244 Z M 120.68965517241381 241.37931034482762 L 137.93103448275863 241.37931034482762 L 137.93103448275863 258.62068965517244 L 120.68965517241381 258.62068965517244 Z M 137.93103448275863 241.37931034482762 L 155.17241379310346 241.37931034482762 L 155.17241379310346 258.62068965517244 L 137.93103448275863 258.62068965517244 Z M 155.17241379310346 241.37931034482762 L 172.41379310344828 241.37931034482762 L 172.41379310344828 258.62068965517244 L 155.17241379310346 258.62068965517244 Z M 172.4137931034483 241.37931034482762 L 189.65517241379314 241.37931034482762 L 189.65517241379314 258.62068965517244 L 172.4137931034483 258.62068965517244 Z M 224.1379310344828 241.37931034482762 L 241.37931034482762 241.37931034482762 L 241.37931034482762 258.62068965517244 L 224.1379310344828 258.62068965517244 Z M 241.37931034482762 241.37931034482762 L 258.62068965517244 241.37931034482762 L 258.62068965517244 258.62068965517244 L 241.37931034482762 258.62068965517244 Z M 258.62068965517244 241.37931034482762 L 275.86206896551727 241.37931034482762 L 275.86206896551727 258.62068965517244 L 258.62068965517244 258.62068965517244 Z M 293.1034482758621 241.37931034482762 L 310.3448275862069 241.37931034482762 L 310.3448275862069 258.62068965517244 L 293.1034482758621 258.62068965517244 Z M 362.0689655172414 241.37931034482762 L 379.3103448275862 241.37931034482762 L 379.3103448275862 258.62068965517244 L 362.0689655172414 258.62068965517244 Z M 379.3103448275862 241.37931034482762 L 396.55172413793105 241.37931034482762 L 396.55172413793105 258.62068965517244 L 379.3103448275862 258.62068965517244 Z M 396.55172413793105 241.37931034482762 L 413.7931034482759 241.37931034482762 L 413.7931034482759 258.62068965517244 L 396.55172413793105 258.62068965517244 Z M 68.96551724137932 258.62068965517244 L 86.20689655172414 258.62068965517244 L 86.20689655172414 275.86206896551727 L 68.96551724137932 275.86206896551727 Z M 103.44827586206898 258.62068965517244 L 120.68965517241381 258.62068965517244 L 120.68965517241381 275.86206896551727 L 103.44827586206898 275.86206896551727 Z M 120.68965517241381 258.62068965517244 L 137.93103448275863 258.62068965517244 L 137.93103448275863 275.86206896551727 L 120.68965517241381 275.86206896551727 Z M 155.17241379310346 258.62068965517244 L 172.41379310344828 258.62068965517244 L 172.41379310344828 275.86206896551727 L 155.17241379310346 275.86206896551727 Z M 189.65517241379314 258.62068965517244 L 206.89655172413796 258.62068965517244 L 206.89655172413796 275.86206896551727 L 189.65517241379314 275.86206896551727 Z M 206.89655172413796 258.62068965517244 L 224.1379310344828 258.62068965517244 L 224.1379310344828 275.86206896551727 L 206.89655172413796 275.86206896551727 Z M 224.1379310344828 258.62068965517244 L 241.37931034482762 258.62068965517244 L 241.37931034482762 275.86206896551727 L 224.1379310344828 275.86206896551727 Z M 293.1034482758621 258.62068965517244 L 310.3448275862069 258.62068965517244 L 310.3448275862069 275.86206896551727 L 293.1034482758621 275.86206896551727 Z M 327.58620689655174 258.62068965517244 L 344.82758620689657 258.62068965517244 L 344.82758620689657 275.86206896551727 L 327.58620689655174 275.86206896551727 Z M 362.0689655172414 258.62068965517244 L 379.3103448275862 258.62068965517244 L 379.3103448275862 275.86206896551727 L 362.0689655172414 275.86206896551727 Z M 379.3103448275862 258.62068965517244 L 396.55172413793105 258.62068965517244 L 396.55172413793105 275.86206896551727 L 379.3103448275862 275.86206896551727 Z M 103.44827586206898 275.86206896551727 L 120.68965517241381 275.86206896551727 L 120.68965517241381 293.1034482758621 L 103.44827586206898 293.1034482758621 Z M 137.93103448275863 275.86206896551727 L 155.17241379310346 275.86206896551727 L 155.17241379310346 293.1034482758621 L 137.93103448275863 293.1034482758621 Z M 155.17241379310346 275.86206896551727 L 172.41379310344828 275.86206896551727 L 172.41379310344828 293.1034482758621 L 155.17241379310346 293.1034482758621 Z M 172.4137931034483 275.86206896551727 L 189.65517241379314 275.86206896551727 L 189.65517241379314 293.1034482758621 L 172.4137931034483 293.1034482758621 Z M 189.65517241379314 275.86206896551727 L 206.89655172413796 275.86206896551727 L 206.89655172413796 293.1034482758621 L 189.65517241379314 293.1034482758621 Z M 224.1379310344828 275.86206896551727 L 241.37931034482762 275.86206896551727 L 241.37931034482762 293.1034482758621 L 224.1379310344828 293.1034482758621 Z M 258.62068965517244 275.86206896551727 L 275.86206896551727 275.86206896551727 L 275.86206896551727 293.1034482758621 L 258.62068965517244 293.1034482758621 Z M 293.1034482758621 275.86206896551727 L 310.3448275862069 275.86206896551727 L 310.3448275862069 293.1034482758621 L 293.1034482758621 293.1034482758621 Z M 310.3448275862069 275.86206896551727 L 327.58620689655174 275.86206896551727 L 327.58620689655174 293.1034482758621 L 310.3448275862069 293.1034482758621 Z M 396.55172413793105 275.86206896551727 L 413.7931034482759 275.86206896551727 L 413.7931034482759 293.1034482758621 L 396.55172413793105 293.1034482758621 Z M 206.89655172413796 293.1034482758621 L 224.1379310344828 293.1034482758621 L 224.1379310344828 310.3448275862069 L 206.89655172413796 310.3448275862069 Z M 241.37931034482762 293.1034482758621 L 258.62068965517244 293.1034482758621 L 258.62068965517244 310.3448275862069 L 241.37931034482762 310.3448275862069 Z M 258.62068965517244 293.1034482758621 L 275.86206896551727 293.1034482758621 L 275.86206896551727 310.3448275862069 L 258.62068965517244 310.3448275862069 Z M 275.86206896551727 293.1034482758621 L 293.1034482758621 293.1034482758621 L 293.1034482758621 310.3448275862069 L 275.86206896551727 310.3448275862069 Z M 379.3103448275862 293.1034482758621 L 396.55172413793105 293.1034482758621 L 396.55172413793105 310.3448275862069 L 379.3103448275862 310.3448275862069 Z M 224.1379310344828 310.3448275862069 L 241.37931034482762 310.3448275862069 L 241.37931034482762 327.58620689655174 L 224.1379310344828 327.58620689655174 Z M 275.86206896551727 310.3448275862069 L 293.1034482758621 310.3448275862069 L 293.1034482758621 327.58620689655174 L 275.86206896551727 327.58620689655174 Z M 293.1034482758621 310.3448275862069 L 310.3448275862069 310.3448275862069 L 310.3448275862069 327.58620689655174 L 293.1034482758621 327.58620689655174 Z M 310.3448275862069 310.3448275862069 L 327.58620689655174 310.3448275862069 L 327.58620689655174 327.58620689655174 L 310.3448275862069 327.58620689655174 Z M 396.55172413793105 310.3448275862069 L 413.7931034482759 310.3448275862069 L 413.7931034482759 327.58620689655174 L 396.55172413793105 327.58620689655174 Z M 206.89655172413796 327.58620689655174 L 224.1379310344828 327.58620689655174 L 224.1379310344828 344.82758620689657 L 206.89655172413796 344.82758620689657 Z M 258.62068965517244 327.58620689655174 L 275.86206896551727 327.58620689655174 L 275.86206896551727 344.82758620689657 L 258.62068965517244 344.82758620689657 Z M 275.86206896551727 327.58620689655174 L 293.1034482758621 327.58620689655174 L 293.1034482758621 344.82758620689657 L 275.86206896551727 344.82758620689657 Z M 293.1034482758621 327.58620689655174 L 310.3448275862069 327.58620689655174 L 310.3448275862069 344.82758620689657 L 293.1034482758621 344.82758620689657 Z M 327.58620689655174 327.58620689655174 L 344.82758620689657 327.58620689655174 L 344.82758620689657 344.82758620689657 L 327.58620689655174 344.82758620689657 Z M 362.0689655172414 327.58620689655174 L 379.3103448275862 327.58620689655174 L 379.3103448275862 344.82758620689657 L 362.0689655172414 344.82758620689657 Z M 379.3103448275862 327.58620689655174 L 396.55172413793105 327.58620689655174 L 396.55172413793105 344.82758620689657 L 379.3103448275862 344.82758620689657 Z M 413.7931034482759 327.58620689655174 L 431.0344827586207 327.58620689655174 L 431.0344827586207 344.82758620689657 L 413.7931034482759 344.82758620689657 Z M 206.89655172413796 344.82758620689657 L 224.1379310344828 344.82758620689657 L 224.1379310344828 362.0689655172414 L 206.89655172413796 362.0689655172414 Z M 241.37931034482762 344.82758620689657 L 258.62068965517244 344.82758620689657 L 258.62068965517244 362.0689655172414 L 241.37931034482762 362.0689655172414 Z M 275.86206896551727 344.82758620689657 L 293.1034482758621 344.82758620689657 L 293.1034482758621 362.0689655172414 L 275.86206896551727 362.0689655172414 Z M 293.1034482758621 344.82758620689657 L 310.3448275862069 344.82758620689657 L 310.3448275862069 362.0689655172414 L 293.1034482758621 362.0689655172414 Z M 310.3448275862069 344.82758620689657 L 327.58620689655174 344.82758620689657 L 327.58620689655174 362.0689655172414 L 310.3448275862069 362.0689655172414 Z M 327.58620689655174 344.82758620689657 L 344.82758620689657 344.82758620689657 L 344.82758620689657 362.0689655172414 L 327.58620689655174 362.0689655172414 Z M 362.0689655172414 344.82758620689657 L 379.3103448275862 344.82758620689657 L 379.3103448275862 362.0689655172414 L 362.0689655172414 362.0689655172414 Z M 413.7931034482759 344.82758620689657 L 431.0344827586207 344.82758620689657 L 431.0344827586207 362.0689655172414 L 413.7931034482759 362.0689655172414 Z M 206.89655172413796 362.0689655172414 L 224.1379310344828 362.0689655172414 L 224.1379310344828 379.3103448275862 L 206.89655172413796 379.3103448275862 Z M 224.1379310344828 362.0689655172414 L 241.37931034482762 362.0689655172414 L 241.37931034482762 379.3103448275862 L 224.1379310344828 379.3103448275862 Z M 275.86206896551727 362.0689655172414 L 293.1034482758621 362.0689655172414 L 293.1034482758621 379.3103448275862 L 275.86206896551727 379.3103448275862 Z M 293.1034482758621 362.0689655172414 L 310.3448275862069 362.0689655172414 L 310.3448275862069 379.3103448275862 L 293.1034482758621 379.3103448275862 Z M 327.58620689655174 362.0689655172414 L 344.82758620689657 362.0689655172414 L 344.82758620689657 379.3103448275862 L 327.58620689655174 379.3103448275862 Z M 344.82758620689657 362.0689655172414 L 362.0689655172414 362.0689655172414 L 362.0689655172414 379.3103448275862 L 344.82758620689657 379.3103448275862 Z M 362.0689655172414 362.0689655172414 L 379.3103448275862 362.0689655172414 L 379.3103448275862 379.3103448275862 L 362.0689655172414 379.3103448275862 Z M 379.3103448275862 362.0689655172414 L 396.55172413793105 362.0689655172414 L 396.55172413793105 379.3103448275862 L 379.3103448275862 379.3103448275862 Z M 206.89655172413796 379.3103448275862 L 224.1379310344828 379.3103448275862 L 224.1379310344828 396.55172413793105 L 206.89655172413796 396.55172413793105 Z M 258.62068965517244 379.3103448275862 L 275.86206896551727 379.3103448275862 L 275.86206896551727 396.55172413793105 L 258.62068965517244 396.55172413793105 Z M 327.58620689655174 379.3103448275862 L 344.82758620689657 379.3103448275862 L 344.82758620689657 396.55172413793105 L 327.58620689655174 396.55172413793105 Z M 362.0689655172414 379.3103448275862 L 379.3103448275862 379.3103448275862 L 379.3103448275862 396.55172413793105 L 362.0689655172414 396.55172413793105 Z M 379.3103448275862 379.3103448275862 L 396.55172413793105 379.3103448275862 L 396.55172413793105 396.55172413793105 L 379.3103448275862 396.55172413793105 Z M 224.1379310344828 396.55172413793105 L 241.37931034482762 396.55172413793105 L 241.37931034482762 413.7931034482759 L 224.1379310344828 413.7931034482759 Z M 344.82758620689657 396.55172413793105 L 362.0689655172414 396.55172413793105 L 362.0689655172414 413.7931034482759 L 344.82758620689657 413.7931034482759 Z M 362.0689655172414 396.55172413793105 L 379.3103448275862 396.55172413793105 L 379.3103448275862 413.7931034482759 L 362.0689655172414 413.7931034482759 Z M 379.3103448275862 396.55172413793105 L 396.55172413793105 396.55172413793105 L 396.55172413793105 413.7931034482759 L 379.3103448275862 413.7931034482759 Z M 206.89655172413796 413.7931034482759 L 224.1379310344828 413.7931034482759 L 224.1379310344828 431.0344827586207 L 206.89655172413796 431.0344827586207 Z M 241.37931034482762 413.7931034482759 L 258.62068965517244 413.7931034482759 L 258.62068965517244 431.0344827586207 L 241.37931034482762 431.0344827586207 Z M 258.62068965517244 413.7931034482759 L 275.86206896551727 413.7931034482759 L 275.86206896551727 431.0344827586207 L 258.62068965517244 431.0344827586207 Z M 396.55172413793105 413.7931034482759 L 413.7931034482759 413.7931034482759 L 413.7931034482759 431.0344827586207 L 396.55172413793105 431.0344827586207 Z" fill="#000000" fill-rule="evenodd"/>
<path d="M 472.17188 1.3339844 C 457.13464 18.960538 449.98226 41.252903 433.91016 57.945312 C 412.86273 79.925964 381.34109 96.830752 356.24414 113.625 C 346.29165 120.26475 334.57334 131.25179 322.33594 133.22656 C 303.566 136.33672 306.67624 138.2024 293.71484 120.88672 C 277.33222 98.906065 263.12717 73.605914 238.75977 60.644531 C 233.16157 84.91009 239.59202 106.47961 232.33008 131.04883 C 224.24366 158.42513 213.24782 184.76045 199.45508 209.75 C 192.61274 222.0894 183.90463 242.93436 172.70117 251.64258 C 169.8008 255.47599 166.89259 259.21524 163.99219 263.04883 C 154.35077 258.90435 144.70939 254.65153 135.06055 250.5 C 123.65416 245.62504 76.784672 216.18118 65.587891 230.17578 C 58.535788 239.09394 90.786368 271.95908 94.621094 284.60938 C 102.60623 310.94504 101.7754 340.59853 102.50586 367.76562 C 103.02662 388.19089 111.21503 430.18601 92.865234 443.87695 C 70.67536 460.36065 25.780334 445.33094 -0.35351562 461.91602 C 16.860859 477.77779 38.529448 484.62698 55.634766 500.58984 C 76.891427 520.60407 95.039353 546.73674 109.86719 571.82812 C 116.91927 583.64669 123.66043 595.9864 129.35938 608.63672 C 138.27755 628.43985 135.89146 623.46468 124.59375 637.25781 C 104.79062 661.21415 71.814378 666.49956 59.164062 696.77734 C 76.580825 700.82056 90.064624 695.43202 107.27734 696.77734 C 127.91372 698.43369 150.41366 708.80541 169.18359 716.68945 C 191.16425 725.8174 212.11264 737.0148 232.125 750.07617 C 237.7232 753.70703 259.60284 765.42447 261.1582 770.8125 C 262.50351 775.57899 251.30604 793.72623 249.12891 798.60156 C 243.53071 811.66424 221.75283 846.50578 225.79492 860.40039 C 232.22506 882.27918 247.77628 858.32339 258.98047 850.75781 C 293.50959 827.32365 347.63433 833.34142 387.14062 832.4082 C 400.20329 832.09716 430.479 825.66832 440.64258 835.51953 C 450.70359 845.26946 446.34275 892.96242 448.93945 907.27734 C 451.73856 922.82802 452.88228 941.4941 469.26562 926.45703 C 481.81465 915.05066 486.47879 891.71827 500.0625 878.13477 C 528.78493 849.41233 568.08122 819.5464 606.6543 805.96289 C 648.64915 791.23673 660.15634 858.11976 693.65039 876.26758 C 700.60123 851.37987 691.88536 828.15545 700.91211 802.13086 C 711.59506 771.23091 726.93757 739.19064 743.00781 710.7793 C 748.08535 701.86112 754.20453 688.06687 762.5 682.26758 C 776.29312 672.51768 778.88253 678.01458 797.13086 685.89844 C 820.15397 695.85092 842.65434 709.64432 867.8457 707.4668 C 862.24752 685.99902 846.68954 672.62635 839.95703 651.16602 C 830.4169 620.67899 827.4082 586.45996 827.4082 554.83789 C 827.4082 528.50221 822.22251 500.50507 849.07812 491.68945 C 877.80055 482.35892 907.14259 492.10078 933.6875 475.51562 C 929.96979 470.84326 925.60825 466.59738 920.8418 462.86523 L 920.8457 462.86523 C 897.4115 448.44995 883.20481 442.95344 865.99023 419.72852 C 848.15387 395.67218 830.73786 370.89047 814.76758 345.58984 C 796.3091 316.2453 792.26634 311.78389 820.4668 290.8457 C 840.69024 275.80846 863.3949 263.57569 874.58984 240.76367 C 851.46674 233.92135 829.38431 240.76362 805.21875 234.64453 C 777.0185 227.49114 749.11911 214.94239 723.92773 200.63672 C 706.19991 190.57573 676.8494 178.23611 674.67188 156.67578 C 671.66297 127.5423 709.30266 99.643179 705.88086 67.087891 C 683.37989 72.997171 669.69473 89.379851 646.77344 95.810547 C 615.5643 104.51893 582.17583 108.04796 549.82422 107.93945 C 516.95045 107.83823 495.3894 112.81561 489.06055 78.496094 C 483.99024 51.104992 488.86545 24.45709 472.17188 1.3339844 z M 466.66602 151.98438 A 314.68199 314.68199 0 0 1 781.34961 466.66602 A 314.68199 314.68199 0 0 1 466.66602 781.34961 A 314.68199 314.68199 0 0 1 151.98438 466.66602 A 314.68199 314.68199 0 0 1 466.66602 151.98438 z" fill="#FF0000" fill-rule="evenodd" transform="translate(68.96551724137932,68.96551724137932) scale(0.12931034482758622)"/>
<path d="" fill="#FFFFFF" fill-rule="evenodd"/>
<path d="M 103.44827586206898 103.44827586206898 L 142.24137931034485 103.44827586206898 L 142.24137931034485 142.24137931034485 L 103.44827586206898 142.24137931034485 Z" fill="#0000FF"/>
<path d="M 472.17188 1.3339844 C 457.13464 18.960538 449.98226 41.252903 433.91016 57.945312 C 412.86273 79.925964 381.34109 96.830752 356.24414 113.625 C 346.29165 120.26475 334.57334 131.25179 322.33594 133.22656 C 303.566 136.33672 306.67624 138.2024 293.71484 120.88672 C 277.33222 98.906065 263.12717 73.605914 238.75977 60.644531 C 233.16157 84.91009 239.59202 106.47961 232.33008 131.04883 C 224.24366 158.42513 213.24782 184.76045 199.45508 209.75 C 192.61274 222.0894 183.90463 242.93436 172.70117 251.64258 C 169.8008 255.47599 166.89259 259.21524 163.99219 263.04883 C 154.35077 258.90435 144.70939 254.65153 135.06055 250.5 C 123.65416 245.62504 76.784672 216.18118 65.587891 230.17578 C 58.535788 239.09394 90.786368 271.95908 94.621094 284.60938 C 102.60623 310.94504 101.7754 340.59853 102.50586 367.76562 C 103.02662 388.19089 111.21503 430.18601 92.865234 443.87695 C 70.67536 460.36065 25.780334 445.33094 -0.35351562 461.91602 C 16.860859 477.77779 38.529448 484.62698 55.634766 500.58984 C 76.891427 520.60407 95.039353 546.73674 109.86719 571.82812 C 116.91927 583.64669 123.66043 595.9864 129.35938 608.63672 C 138.27755 628.43985 135.89146 623.46468 124.59375 637.25781 C 104.79062 661.21415 71.814378 666.49956 59.164062 696.77734 C 76.580825 700.82056 90.064624 695.43202 107.27734 696.77734 C 127.91372 698.43369 150.41366 708.80541 169.18359 716.68945 C 191.16425 725.8174 212.11264 737.0148 232.125 750.07617 C 237.7232 753.70703 259.60284 765.42447 261.1582 770.8125 C 262.50351 775.57899 251.30604 793.72623 249.12891 798.60156 C 243.53071 811.66424 221.75283 846.50578 225.79492 860.40039 C 232.22506 882.27918 247.77628 858.32339 258.98047 850.75781 C 293.50959 827.32365 347.63433 833.34142 387.14062 832.4082 C 400.20329 832.09716 430.479 825.66832 440.64258 835.51953 C 450.70359 845.26946 446.34275 892.96242 448.93945 907.27734 C 451.73856 922.82802 452.88228 941.4941 469.26562 926.45703 C 481.81465 915.05066 486.47879 891.71827 500.0625 878.13477 C 528.78493 849.41233 568.08122 819.5464 606.6543 805.96289 C 648.64915 791.23673 660.15634 858.11976 693.65039 876.26758 C 700.60123 851.37987 691.88536 828.15545 700.91211 802.13086 C 711.59506 771.23091 726.93757 739.19064 743.00781 710.7793 C 748.08535 701.86112 754.20453 688.06687 762.5 682.26758 C 776.29312 672.51768 778.88253 678.01458 797.13086 685.89844 C 820.15397 695.85092 842.65434 709.64432 867.8457 707.4668 C 862.24752 685.99902 846.68954 672.62635 839.95703 651.16602 C 830.4169 620.67899 827.4082 586.45996 827.4082 554.83789 C 827.4082 528.50221 822.22251 500.50507 849.07812 491.68945 C 877.80055 482.35892 907.14259 492.10078 933.6875 475.51562 C 929.96979 470.84326 925.60825 466.59738 920.8418 462.86523 L 920.8457 462.86523 C 897.4115 448.44995 883.20481 442.95344 865.99023 419.72852 C 848.15387 395.67218 830.73786 370.89047 814.76758 345.58984 C 796.3091 316.2453 792.26634 311.78389 820.4668 290.8457 C 840.69024 275.80846 863.3949 263.57569 874.58984 240.76367 C 851.46674 233.92135 829.38431 240.76362 805.21875 234.64453 C 777.0185 227.49114 749.11911 214.94239 723.92773 200.63672 C 706.19991 190.57573 676.8494 178.23611 674.67188 156.67578 C 671.66297 127.5423 709.30266 99.643179 705.88086 67.087891 C 683.37989 72.997171 669.69473 89.379851 646.77344 95.810547 C 615.5643 104.51893 582.17583 108.04796 549.82422 107.93945 C 516.95045 107.83823 495.3894 112.81561 489.06055 78.496094 C 483.99024 51.104992 488.86545 24.45709 472.17188 1.3339844 z M 466.66602 151.98438 A 314.68199 314.68199 0 0 1 781.34961 466.66602 A 314.68199 314.68199 0 0 1 466.66602 781.34961 A 314.68199 314.68199 0 0 1 151.98438 466.66602 A 314.68199 314.68199 0 0 1 466.66602 151.98438 z" fill="#FF0000" fill-rule="evenodd" transform="translate(310.3448275862069,68.96551724137932) scale(0.12931034482758622)"/>
<path d="" fill="#FFFFFF" fill-rule="evenodd"/>
<path d="M 344.82758620689657 103.44827586206898 L 383.62068965517244 103.44827586206898 L 383.62068965517244 142.24137931034485 L 344.82758620689657 142.24137931034485 Z" fill="#0000FF"/>
<path d="M 472.17188 1.3339844 C 457.13464 18.960538 449.98226 41.252903 433.91016 57.945312 C 412.86273 79.925964 381.34109 96.830752 356.24414 113.625 C 346.29165 120.26475 334.57334 131.25179 322.33594 133.22656 C 303.566 136.33672 306.67624 138.2024 293.71484 120.88672 C 277.33222 98.906065 263.12717 73.605914 238.75977 60.644531 C 233.16157 84.91009 239.59202 106.47961 232.33008 131.04883 C 224.24366 158.42513 213.24782 184.76045 199.45508 209.75 C 192.61274 222.0894 183.90463 242.93436 172.70117 251.64258 C 169.8008 255.47599 166.89259 259.21524 163.99219 263.04883 C 154.35077 258.90435 144.70939 254.65153 135.06055 250.5 C 123.65416 245.62504 76.784672 216.18118 65.587891 230.17578 C 58.535788 239.09394 90.786368 271.95908 94.621094 284.60938 C 102.60623 310.94504 101.7754 340.59853 102.50586 367.76562 C 103.02662 388.19089 111.21503 430.18601 92.865234 443.87695 C 70.67536 460.36065 25.780334 445.33094 -0.35351562 461.91602 C 16.860859 477.77779 38.529448 484.62698 55.634766 500.58984 C 76.891427 520.60407 95.039353 546.73674 109.86719 571.82812 C 116.91927 583.64669 123.66043 595.9864 129.35938 608.63672 C 138.27755 628.43985 135.89146 623.46468 124.59375 637.25781 C 104.79062 661.21415 71.814378 666.49956 59.164062 696.77734 C 76.580825 700.82056 90.064624 695.43202 107.27734 696.77734 C 127.91372 698.43369 150.41366 708.80541 169.18359 716.68945 C 191.16425 725.8174 212.11264 737.0148 232.125 750.07617 C 237.7232 753.70703 259.60284 765.42447 261.1582 770.8125 C 262.50351 775.57899 251.30604 793.72623 249.12891 798.60156 C 243.53071 811.66424 221.75283 846.50578 225.79492 860.40039 C 232.22506 882.27918 247.77628 858.32339 258.98047 850.75781 C 293.50959 827.32365 347.63433 833.34142 387.14062 832.4082 C 400.20329 832.09716 430.479 825.66832 440.64258 835.51953 C 450.70359 845.26946 446.34275 892.96242 448.93945 907.27734 C 451.73856 922.82802 452.88228 941.4941 469.26562 926.45703 C 481.81465 915.05066 486.47879 891.71827 500.0625 878.13477 C 528.78493 849.41233 568.08122 819.5464 606.6543 805.96289 C 648.64915 791.23673 660.15634 858.11976 693.65039 876.26758 C 700.60123 851.37987 691.88536 828.15545 700.91211 802.13086 C 711.59506 771.23091 726.93757 739.19064 743.00781 710.7793 C 748.08535 701.86112 754.20453 688.06687 762.5 682.26758 C 776.29312 672.51768 778.88253 678.01458 797.13086 685.89844 C 820.15397 695.85092 842.65434 709.64432 867.8457 707.4668 C 862.24752 685.99902 846.68954 672.62635 839.95703 651.16602 C 830.4169 620.67899 827.4082 586.45996 827.4082 554.83789 C 827.4082 528.50221 822.22251 500.50507 849.07812 491.68945 C 877.80055 482.35892 907.14259 492.10078 933.6875 475.51562 C 929.96979 470.84326 925.60825 466.59738 920.8418 462.86523 L 920.8457 462.86523 C 897.4115 448.44995 883.20481 442.95344 865.99023 419.72852 C 848.15387 395.67218 830.73786 370.89047 814.76758 345.58984 C 796.3091 316.2453 792.26634 311.78389 820.4668 290.8457 C 840.69024 275.80846 863.3949 263.57569 874.58984 240.76367 C 851.46674 233.92135 829.38431 240.76362 805.21875 234.64453 C 777.0185 227.49114 749.11911 214.94239 723.92773 200.63672 C 706.19991 190.57573 676.8494 178.23611 674.67188 156.67578 C 671.66297 127.5423 709.30266 99.643179 705.88086 67.087891 C 683.37989 72.997171 669.69473 89.379851 646.77344 95.810547 C 615.5643 104.51893 582.17583 108.04796 549.82422 107.93945 C 516.95045 107.83823 495.3894 112.81561 489.06055 78.496094 C 483.99024 51.104992 488.86545 24.45709 472.17188 1.3339844 z M 466.66602 151.98438 A 314.68199 314.68199 0 0 1 781.34961 466.66602 A 314.68199 314.68199 0 0 1 466.66602 781.34961 A 314.68199 314.68199 0 0 1 151.98438 466.66602 A 314.68199 314.68199 0 0 1 466.66602 151.98438 z" fill="#FF0000" fill-rule="evenodd" transform="translate(68.96551724137932,310.3448275862069) scale(0.12931034482758622)"/>
<path d="" fill="#FFFFFF" fill-rule="evenodd"/>
<path d="M 103.44827586206898 344.82758620689657 L 142.24137931034485 344.82758620689657 L 142.24137931034485 383.62068965517244 L 103.44827586206898 383.62068965517244 Z" fill="#0000FF"/>
</svg>