<?xml version="1.0" encoding="UTF-8"?>
<svg xmlns="http://www.w3.org/2000/svg" width="500" height="500" viewBox="0 0 500 500">

<rect x="0" y="0" width="500" height="500" fill="#FFFFFF"/>
<path d="M 196.969696969697 60.60606060606061 L 212.12121212121215 60.60606060606061 L 212.12121212121215 75.75757575757576 L 196.969696969697 75.75757575757576 Z M 212.12121212121212 60.60606060606061 L 227.27272727272728 60.60606060606061 L 227.27272727272728 75.75757575757576 L 212.12121212121212 75.75757575757576 Z M 257.57575757575756 60.60606060606061 L 272.7272727272727 60.60606060606061 L 272.7272727272727 75.75757575757576 L 257.57575757575756 75.75757575757576 Z M 287.8787878787879 60.60606060606061 L 303.030303030303 60.60606060606061 L 303.030303030303 75.75757575757576 L 287.8787878787879 75.75757575757576 Z M 196.969696969697 75.75757575757576 L 212.12121212121215 75.75757575757576 L 212.12121212121215 90.90909090909092 L 196.969696969697 90.90909090909092 Z M 227.2727272727273 75.75757575757576 L 242.42424242424246 75.75757575757576 L 242.42424242424246 90.90909090909092 L 227.2727272727273 90.90909090909092 Z M 257.57575757575756 75.75757575757576 L 272.7272727272727 75.75757575757576 L 272.7272727272727 90.90909090909092 L 257.57575757575756 90.90909090909092 Z M 272.72727272727275 75.75757575757576 L 287.8787878787879 75.75757575757576 L 287.8787878787879 90.90909090909092 L 272.72727272727275 90.90909090909092 Z M 287.8787878787879 75.75757575757576 L 303.030303030303 75.75757575757576 L 303.030303030303 90.90909090909092 L 287.8787878787879 90.90909090909092 Z M 181.8181818181818 90.9090909090909 L 196.96969696969697 90.9090909090909 L 196.96969696969697 106.06060606060606 L 181.8181818181818 106.06060606060606 Z M 196.969696969697 90.9090909090909 L 212.12121212121215 90.9090909090909 L 212.12121212121215 106.06060606060606 L 196.969696969697 106.06060606060606 Z M 212.12121212121212 90.9090909090909 L 227.27272727272728 90.9090909090909 L 227.27272727272728 106.06060606060606 L 212.12121212121212 106.06060606060606 Z M 242.42424242424244 90.9090909090909 L 257.57575757575756 90.9090909090909 L 257.57575757575756 106.06060606060606 L 242.42424242424244 106.06060606060606 Z M 257.57575757575756 90.9090909090909 L 272.7272727272727 90.9090909090909 L 272.7272727272727 106.06060606060606 L 257.57575757575756 106.06060606060606 Z M 287.8787878787879 90.9090909090909 L 303.030303030303 90.9090909090909 L 303.030303030303 106.06060606060606 L 287.8787878787879 106.06060606060606 Z M 303.03030303030306 90.9090909090909 L 318.1818181818182 90.9090909090909 L 318.1818181818182 106.06060606060606 L 303.03030303030306 106.06060606060606 Z M 181.8181818181818 106.06060606060606 L 196.96969696969697 106.06060606060606 L 196.96969696969697 121.21212121212122 L 181.8181818181818 121.21212121212122 Z M 227.2727272727273 106.06060606060606 L 242.42424242424246 106.06060606060606 L 242.42424242424246 121.21212121212122 L 227.2727272727273 121.21212121212122 Z M 272.72727272727275 106.06060606060606 L 287.8787878787879 106.06060606060606 L 287.8787878787879 121.21212121212122 L 272.72727272727275 121.21212121212122 Z M 287.8787878787879 106.06060606060606 L 303.030303030303 106.06060606060606 L 303.030303030303 121.21212121212122 L 287.8787878787879 121.21212121212122 Z M 303.03030303030306 106.06060606060606 L 318.1818181818182 106.06060606060606 L 318.1818181818182 121.21212121212122 L 303.03030303030306 121.21212121212122 Z M 181.8181818181818 121.21212121212122 L 196.96969696969697 121.21212121212122 L 196.96969696969697 136.36363636363637 L 181.8181818181818 136.36363636363637 Z M 196.969696969697 121.21212121212122 L 212.12121212121215 121.21212121212122 L 212.12121212121215 136.36363636363637 L 196.969696969697 136.36363636363637 Z M 212.12121212121212 121.21212121212122 L 227.27272727272728 121.21212121212122 L 227.27272727272728 136.36363636363637 L 212.12121212121212 136.36363636363637 Z M 303.03030303030306 121.21212121212122 L 318.1818181818182 121.21212121212122 L 318.1818181818182 136.36363636363637 L 303.03030303030306 136.36363636363637 Z M 181.8181818181818 136.36363636363637 L 196.96969696969697 136.36363636363637 L 196.96969696969697 151.51515151515153 L 181.8181818181818 151.51515151515153 Z M 287.8787878787879 136.36363636363637 L 303.030303030303 136.36363636363637 L 303.030303030303 151.51515151515153 L 287.8787878787879 151.51515151515153 Z M 303.03030303030306 136.36363636363637 L 318.1818181818182 136.36363636363637 L 318.1818181818182 151.51515151515153 L 303.03030303030306 151.51515151515153 Z M 181.8181818181818 151.5151515151515 L 196.96969696969697 151.5151515151515 L 196.96969696969697 166.66666666666666 L 181.8181818181818 166.66666666666666 Z M 212.12121212121212 151.5151515151515 L 227.27272727272728 151.5151515151515 L 227.27272727272728 166.66666666666666 L 212.12121212121212 166.66666666666666 Z M 242.42424242424244 151.5151515151515 L 257.57575757575756 151.5151515151515 L 257.57575757575756 166.66666666666666 L 242.42424242424244 166.66666666666666 Z M 272.72727272727275 151.5151515151515 L 287.8787878787879 151.5151515151515 L 287.8787878787879 166.66666666666666 L 272.72727272727275 166.66666666666666 Z M 303.03030303030306 151.5151515151515 L 318.1818181818182 151.5151515151515 L 318.1818181818182 166.66666666666666 L 303.03030303030306 166.66666666666666 Z M 181.8181818181818 166.66666666666669 L 196.96969696969697 166.66666666666669 L 196.96969696969697 181.81818181818184 L 181.8181818181818 181.81818181818184 Z M 196.969696969697 166.66666666666669 L 212.12121212121215 166.66666666666669 L 212.12121212121215 181.81818181818184 L 196.969696969697 181.81818181818184 Z M 227.2727272727273 166.66666666666669 L 242.42424242424246 166.66666666666669 L 242.42424242424246 181.81818181818184 L 227.2727272727273 181.81818181818184 Z M 242.42424242424244 166.66666666666669 L 257.57575757575756 166.66666666666669 L 257.57575757575756 181.81818181818184 L 242.42424242424244 181.81818181818184 Z M 272.72727272727275 166.66666666666669 L 287.8787878787879 166.66666666666669 L 287.8787878787879 181.81818181818184 L 272.72727272727275 181.81818181818184 Z M 60.60606060606061 181.8181818181818 L 75.75757575757576 181.8181818181818 L 75.75757575757576 196.96969696969697 L 60.60606060606061 196.96969696969697 Z M 90.9090909090909 181.8181818181818 L 106.06060606060606 181.8181818181818 L 106.06060606060606 196.96969696969697 L 90.9090909090909 196.96969696969697 Z M 106.06060606060606 181.8181818181818 L 121.21212121212122 181.8181818181818 L 121.21212121212122 196.96969696969697 L 106.06060606060606 196.96969696969697 Z M 121.21212121212122 181.8181818181818 L 136.36363636363637 181.8181818181818 L 136.36363636363637 196.96969696969697 L 121.21212121212122 196.96969696969697 Z M 136.36363636363637 181.8181818181818 L 151.51515151515153 181.8181818181818 L 151.51515151515153 196.96969696969697 L 136.36363636363637 196.96969696969697 Z M 151.5151515151515 181.8181818181818 L 166.66666666666666 181.8181818181818 L 166.66666666666666 196.96969696969697 L 151.5151515151515 196.96969696969697 Z M 227.2727272727273 181.8181818181818 L 242.42424242424246 181.8181818181818 L 242.42424242424246 196.96969696969697 L 227.2727272727273 196.96969696969697 Z M 287.8787878787879 181.8181818181818 L 303.030303030303 181.8181818181818 L 303.030303030303 196.96969696969697 L 287.8787878787879 196.96969696969697 Z M 303.03030303030306 181.8181818181818 L 318.1818181818182 181.8181818181818 L 318.1818181818182 196.96969696969697 L 303.03030303030306 196.96969696969697 Z M 333.33333333333337 181.8181818181818 L 348.4848484848485 181.8181818181818 L 348.4848484848485 196.96969696969697 L 333.33333333333337 196.96969696969697 Z M 348.4848484848485 181.8181818181818 L 363.6363636363636 181.8181818181818 L 363.6363636363636 196.96969696969697 L 348.4848484848485 196.96969696969697 Z M 363.6363636363637 181.8181818181818 L 378.7878787878788 181.8181818181818 L 378.7878787878788 196.96969696969697 L 363.6363636363637 196.96969696969697 Z M 378.7878787878788 181.8181818181818 L 393.93939393939394 181.8181818181818 L 393.93939393939394 196.96969696969697 L 378.7878787878788 196.96969696969697 Z M 393.939393939394 181.8181818181818 L 409.0909090909091 181.8181818181818 L 409.0909090909091 196.96969696969697 L 393.939393939394 196.96969696969697 Z M 60.60606060606061 196.969696969697 L 75.75757575757576 196.969696969697 L 75.75757575757576 212.12121212121215 L 60.60606060606061 212.12121212121215 Z M 121.21212121212122 196.969696969697 L 136.36363636363637 196.969696969697 L 136.36363636363637 212.12121212121215 L 121.21212121212122 212.12121212121215 Z M 181.8181818181818 196.969696969697 L 196.96969696969697 196.969696969697 L 196.96969696969697 212.12121212121215 L 181.8181818181818 212.12121212121215 Z M 196.969696969697 196.969696969697 L 212.12121212121215 196.969696969697 L 212.12121212121215 212.12121212121215 L 196.969696969697 212.12121212121215 Z M 212.12121212121212 196.969696969697 L 227.27272727272728 196.969696969697 L 227.27272727272728 212.12121212121215 L 212.12121212121212 212.12121212121215 Z M 257.57575757575756 196.969696969697 L 272.7272727272727 196.969696969697 L 272.7272727272727 212.12121212121215 L 257.57575757575756 212.12121212121215 Z M 272.72727272727275 196.969696969697 L 287.8787878787879 196.969696969697 L 287.8787878787879 212.12121212121215 L 272.72727272727275 212.12121212121215 Z M 303.03030303030306 196.969696969697 L 318.1818181818182 196.969696969697 L 318.1818181818182 212.12121212121215 L 303.03030303030306 212.12121212121215 Z M 348.4848484848485 196.969696969697 L 363.6363636363636 196.969696969697 L 363.6363636363636 212.12121212121215 L 348.4848484848485 212.12121212121215 Z M 378.7878787878788 196.969696969697 L 393.93939393939394 196.969696969697 L 393.93939393939394 212.12121212121215 L 378.7878787878788 212.12121212121215 Z M 409.0909090909091 196.969696969697 L 424.24242424242425 196.969696969697 L 424.24242424242425 212.12121212121215 L 409.0909090909091 212.12121212121215 Z M 60.60606060606061 212.12121212121212 L 75.75757575757576 212.12121212121212 L 75.75757575757576 227.27272727272728 L 60.60606060606061 227.27272727272728 Z M 90.9090909090909 212.12121212121212 L 106.06060606060606 212.12121212121212 L 106.06060606060606 227.27272727272728 L 90.9090909090909 227.27272727272728 Z M 121.21212121212122 212.12121212121212 L 136.36363636363637 212.12121212121212 L 136.36363636363637 227.27272727272728 L 121.21212121212122 227.27272727272728 Z M 151.5151515151515 212.12121212121212 L 166.66666666666666 212.12121212121212 L 166.66666666666666 227.27272727272728 L 151.5151515151515 227.27272727272728 Z M 166.66666666666669 212.12121212121212 L 181.81818181818184 212.12121212121212 L 181.81818181818184 227.27272727272728 L 166.66666666666669 227.27272727272728 Z M 181.8181818181818 212.12121212121212 L 196.96969696969697 212.12121212121212 L 196.96969696969697 227.27272727272728 L 181.8181818181818 227.27272727272728 Z M 196.969696969697 212.12121212121212 L 212.12121212121215 212.12121212121212 L 212.12121212121215 227.27272727272728 L 196.969696969697 227.27272727272728 Z M 212.12121212121212 212.12121212121212 L 227.27272727272728 212.12121212121212 L 227.27272727272728 227.27272727272728 L 212.12121212121212 227.27272727272728 Z M 227.2727272727273 212.12121212121212 L 242.42424242424246 212.12121212121212 L 242.42424242424246 227.27272727272728 L 227.2727272727273 227.27272727272728 Z M 257.57575757575756 212.12121212121212 L 272.7272727272727 212.12121212121212 L 272.7272727272727 227.27272727272728 L 257.57575757575756 227.27272727272728 Z M 272.72727272727275 212.12121212121212 L 287.8787878787879 212.12121212121212 L 287.8787878787879 227.27272727272728 L 272.72727272727275 227.27272727272728 Z M 287.8787878787879 212.12121212121212 L 303.030303030303 212.12121212121212 L 303.030303030303 227.27272727272728 L 287.8787878787879 227.27272727272728 Z M 303.03030303030306 212.12121212121212 L 318.1818181818182 212.12121212121212 L 318.1818181818182 227.27272727272728 L 303.03030303030306 227.27272727272728 Z M 378.7878787878788 212.12121212121212 L 393.93939393939394 212.12121212121212 L 393.93939393939394 227.27272727272728 L 378.7878787878788 227.27272727272728 Z M 393.939393939394 212.12121212121212 L 409.0909090909091 212.12121212121212 L 409.0909090909091 227.27272727272728 L 393.939393939394 227.27272727272728 Z M 409.0909090909091 212.12121212121212 L 424.24242424242425 212.12121212121212 L 424.24242424242425 227.27272727272728 L 409.0909090909091 227.27272727272728 Z M 424.24242424242425 212.12121212121212 L 439.3939393939394 212.12121212121212 L 439.3939393939394 227.27272727272728 L 424.24242424242425 227.27272727272728 Z M 75.75757575757576 227.2727272727273 L 90.90909090909092 227.2727272727273 L 90.90909090909092 242.42424242424246 L 75.75757575757576 242.42424242424246 Z M 90.9090909090909 227.2727272727273 L 106.06060606060606 227.2727272727273 L 106.06060606060606 242.42424242424246 L 90.9090909090909 242.42424242424246 Z M 121.21212121212122 227.2727272727273 L 136.36363636363637 227.2727272727273 L 136.36363636363637 242.42424242424246 L 121.21212121212122 242.42424242424246 Z M 136.36363636363637 227.2727272727273 L 151.51515151515153 227.2727272727273 L 151.51515151515153 242.42424242424246 L 136.36363636363637 242.42424242424246 Z M 166.66666666666669 227.2727272727273 L 181.81818181818184 227.2727272727273 L 181.81818181818184 242.42424242424246 L 166.66666666666669 242.42424242424246 Z M 196.969696969697 227.2727272727273 L 212.12121212121215 227.2727272727273 L 212.12121212121215 242.42424242424246 L 196.969696969697 242.42424242424246 Z M 242.42424242424244 227.2727272727273 L 257.57575757575756 227.2727272727273 L 257.57575757575756 242.42424242424246 L 242.42424242424244 242.42424242424246 Z M 257.57575757575756 227.2727272727273 L 272.7272727272727 227.2727272727273 L 272.7272727272727 242.42424242424246 L 257.57575757575756 242.42424242424246 Z M 287.8787878787879 227.2727272727273 L 303.030303030303 227.2727272727273 L 303.030303030303 242.42424242424246 L 287.8787878787879 242.42424242424246 Z M 303.03030303030306 227.2727272727273 L 318.1818181818182 227.2727272727273 L 318.1818181818182 242.42424242424246 L 303.03030303030306 242.42424242424246 Z M 318.1818181818182 227.2727272727273 L 333.3333333333333 227.2727272727273 L 333.3333333333333 242.42424242424246 L 318.1818181818182 242.42424242424246 Z M 333.33333333333337 227.2727272727273 L 348.4848484848485 227.2727272727273 L 348.4848484848485 242.42424242424246 L 333.33333333333337 242.42424242424246 Z M 348.4848484848485 227.2727272727273 L 363.6363636363636 227.2727272727273 L 363.6363636363636 242.42424242424246 L 348.4848484848485 242.42424242424246 Z M 409.0909090909091 227.2727272727273 L 424.24242424242425 227.2727272727273 L 424.24242424242425 242.42424242424246 L 409.0909090909091 242.42424242424246 Z M 424.24242424242425 227.2727272727273 L 439.3939393939394 227.2727272727273 L 439.3939393939394 242.42424242424246 L 424.24242424242425 242.42424242424246 Z M 75.75757575757576 242.42424242424244 L 90.90909090909092 242.42424242424244 L 90.90909090909092 257.57575757575756 L 75.75757575757576 257.57575757575756 Z M 90.9090909090909 242.42424242424244 L 106.06060606060606 242.42424242424244 L 106.06060606060606 257.57575757575756 L 90.9090909090909 257.57575757575756 Z M 106.06060606060606 242.42424242424244 L 121.21212121212122 242.42424242424244 L 121.21212121212122 257.57575757575756 L 106.06060606060606 257.57575757575756 Z M 136.36363636363637 242.42424242424244 L 151.51515151515153 242.42424242424244 L 151.51515151515153 257.57575757575756 L 136.36363636363637 257.57575757575756 Z M 151.5151515151515 242.42424242424244 L 166.66666666666666 242.42424242424244 L 166.66666666666666 257.57575757575756 L 151.5151515151515 257.57575757575756 Z M 166.66666666666669 242.42424242424244 L 181.81818181818184 242.42424242424244 L 181.81818181818184 257.57575757575756 L 166.66666666666669 257.57575757575756 Z M 242.42424242424244 242.42424242424244 L 257.57575757575756 242.42424242424244 L 257.57575757575756 257.57575757575756 L 242.42424242424244 257.57575757575756 Z M 272.72727272727275 242.42424242424244 L 287.8787878787879 242.42424242424244 L 287.8787878787879 257.57575757575756 L 272.72727272727275 257.57575757575756 Z M 287.8787878787879 242.42424242424244 L 303.030303030303 242.42424242424244 L 303.030303030303 257.57575757575756 L 287.8787878787879 257.57575757575756 Z M 318.1818181818182 242.42424242424244 L 333.3333333333333 242.42424242424244 L 333.3333333333333 257.57575757575756 L 318.1818181818182 257.57575757575756 Z M 333.33333333333337 242.42424242424244 L 348.4848484848485 242.42424242424244 L 348.4848484848485 257.57575757575756 L 333.33333333333337 257.57575757575756 Z M 348.4848484848485 242.42424242424244 L 363.6363636363636 242.42424242424244 L 363.6363636363636 257.57575757575756 L 348.4848484848485 257.57575757575756 Z M 363.6363636363637 242.42424242424244 L 378.7878787878788 242.42424242424244 L 378.7878787878788 257.57575757575756 L 363.6363636363637 257.57575757575756 Z M 378.7878787878788 242.42424242424244 L 393.93939393939394 242.42424242424244 L 393.93939393939394 257.57575757575756 L 378.7878787878788 257.57575757575756 Z M 393.939393939394 242.42424242424244 L 409.0909090909091 242.42424242424244 L 409.0909090909091 257.57575757575756 L 393.939393939394 257.57575757575756 Z M 409.0909090909091 242.42424242424244 L 424.24242424242425 242.42424242424244 L 424.24242424242425 257.57575757575756 L 409.0909090909091 257.57575757575756 Z M 424.24242424242425 242.42424242424244 L 439.3939393939394 242.42424242424244 L 439.3939393939394 257.57575757575756 L 424.24242424242425 257.57575757575756 Z M 60.60606060606061 257.57575757575756 L 75.75757575757576 257.57575757575756 L 75.75757575757576 272.7272727272727 L 60.60606060606061 272.7272727272727 Z M 90.9090909090909 257.57575757575756 L 106.06060606060606 257.57575757575756 L 106.06060606060606 272.7272727272727 L 90.9090909090909 272.7272727272727 Z M 106.06060606060606 257.57575757575756 L 121.21212121212122 257.57575757575756 L 121.21212121212122 272.7272727272727 L 106.06060606060606 272.7272727272727 Z M 136.36363636363637 257.57575757575756 L 151.51515151515153 257.57575757575756 L 151.51515151515153 272.7272727272727 L 136.36363636363637 272.7272727272727 Z M 181.8181818181818 257.57575757575756 L 196.96969696969697 257.57575757575756 L 196.96969696969697 272.7272727272727 L 181.8181818181818 272.7272727272727 Z M 212.12121212121212 257.57575757575756 L 227.27272727272728 257.57575757575756 L 227.27272727272728 272.7272727272727 L 212.12121212121212 272.7272727272727 Z M 303.03030303030306 257.57575757575756 L 318.1818181818182 257.57575757575756 L 318.1818181818182 272.7272727272727 L 303.03030303030306 272.7272727272727 Z M 348.4848484848485 257.57575757575756 L 363.6363636363636 257.57575757575756 L 363.6363636363636 272.7272727272727 L 348.4848484848485 272.7272727272727 Z M 378.7878787878788 257.57575757575756 L 393.93939393939394 257.57575757575756 L 393.93939393939394 272.7272727272727 L 378.7878787878788 272.7272727272727 Z M 393.939393939394 257.57575757575756 L 409.0909090909091 257.57575757575756 L 409.0909090909091 272.7272727272727 L 393.939393939394 272.7272727272727 Z M 60.60606060606061 272.72727272727275 L 75.75757575757576 272.72727272727275 L 75.75757575757576 287.8787878787879 L 60.60606060606061 287.8787878787879 Z M 90.9090909090909 272.72727272727275 L 106.06060606060606 272.72727272727275 L 106.06060606060606 287.8787878787879 L 90.9090909090909 287.8787878787879 Z M 151.5151515151515 272.72727272727275 L 166.66666666666666 272.72727272727275 L 166.66666666666666 287.8787878787879 L 151.5151515151515 287.8787878787879 Z M 181.8181818181818 272.72727272727275 L 196.96969696969697 272.72727272727275 L 196.96969696969697 287.8787878787879 L 181.8181818181818 287.8787878787879 Z M 196.969696969697 272.72727272727275 L 212.12121212121215 272.72727272727275 L 212.12121212121215 287.8787878787879 L 196.969696969697 287.8787878787879 Z M 212.12121212121212 272.72727272727275 L 227.27272727272728 272.72727272727275 L 227.27272727272728 287.8787878787879 L 212.12121212121212 287.8787878787879 Z M 227.2727272727273 272.72727272727275 L 242.42424242424246 272.72727272727275 L 242.42424242424246 287.8787878787879 L 227.2727272727273 287.8787878787879 Z M 242.42424242424244 272.72727272727275 L 257.57575757575756 272.72727272727275 L 257.57575757575756 287.8787878787879 L 242.42424242424244 287.8787878787879 Z M 287.8787878787879 272.72727272727275 L 303.030303030303 272.72727272727275 L 303.030303030303 287.8787878787879 L 287.8787878787879 287.8787878787879 Z M 318.1818181818182 272.72727272727275 L 333.3333333333333 272.72727272727275 L 333.3333333333333 287.8787878787879 L 318.1818181818182 287.8787878787879 Z M 348.4848484848485 272.72727272727275 L 363.6363636363636 272.72727272727275 L 363.6363636363636 287.8787878787879 L 348.4848484848485 287.8787878787879 Z M 409.0909090909091 272.72727272727275 L 424.24242424242425 272.72727272727275 L 424.24242424242425 287.8787878787879 L 409.0909090909091 287.8787878787879 Z M 424.24242424242425 272.72727272727275 L 439.3939393939394 272.72727272727275 L 439.3939393939394 287.8787878787879 L 424.24242424242425 287.8787878787879 Z M 60.60606060606061 287.8787878787879 L 75.75757575757576 287.8787878787879 L 75.75757575757576 303.030303030303 L 60.60606060606061 303.030303030303 Z M 90.9090909090909 287.8787878787879 L 106.06060606060606 287.8787878787879 L 106.06060606060606 303.030303030303 L 90.9090909090909 303.030303030303 Z M 106.06060606060606 287.8787878787879 L 121.21212121212122 287.8787878787879 L 121.21212121212122 303.030303030303 L 106.06060606060606 303.030303030303 Z M 181.8181818181818 287.8787878787879 L 196.96969696969697 287.8787878787879 L 196.96969696969697 303.030303030303 L 181.8181818181818 303.030303030303 Z M 196.969696969697 287.8787878787879 L 212.12121212121215 287.8787878787879 L 212.12121212121215 303.030303030303 L 196.969696969697 303.030303030303 Z M 212.12121212121212 287.8787878787879 L 227.27272727272728 287.8787878787879 L 227.27272727272728 303.030303030303 L 212.12121212121212 303.030303030303 Z M 227.2727272727273 287.8787878787879 L 242.42424242424246 287.8787878787879 L 242.42424242424246 303.030303030303 L 227.2727272727273 303.030303030303 Z M 272.72727272727275 287.8787878787879 L 287.8787878787879 287.8787878787879 L 287.8787878787879 303.030303030303 L 272.72727272727275 303.030303030303 Z M 287.8787878787879 287.8787878787879 L 303.030303030303 287.8787878787879 L 303.030303030303 303.030303030303 L 287.8787878787879 303.030303030303 Z M 303.03030303030306 287.8787878787879 L 318.1818181818182 287.8787878787879 L 318.1818181818182 303.030303030303 L 303.03030303030306 303.030303030303 Z M 318.1818181818182 287.8787878787879 L 333.3333333333333 287.8787878787879 L 333.3333333333333 303.030303030303 L 318.1818181818182 303.030303030303 Z M 60.60606060606061 303.03030303030306 L 75.75757575757576 303.03030303030306 L 75.75757575757576 318.1818181818182 L 60.60606060606061 318.1818181818182 Z M 121.21212121212122 303.03030303030306 L 136.36363636363637 303.03030303030306 L 136.36363636363637 318.1818181818182 L 121.21212121212122 318.1818181818182 Z M 136.36363636363637 303.03030303030306 L 151.51515151515153 303.03030303030306 L 151.51515151515153 318.1818181818182 L 136.36363636363637 318.1818181818182 Z M 151.5151515151515 303.03030303030306 L 166.66666666666666 303.03030303030306 L 166.66666666666666 318.1818181818182 L 151.5151515151515 318.1818181818182 Z M 212.12121212121212 303.03030303030306 L 227.27272727272728 303.03030303030306 L 227.27272727272728 318.1818181818182 L 212.12121212121212 318.1818181818182 Z M 227.2727272727273 303.03030303030306 L 242.42424242424246 303.03030303030306 L 242.42424242424246 318.1818181818182 L 227.2727272727273 318.1818181818182 Z M 287.8787878787879 303.03030303030306 L 303.030303030303 303.03030303030306 L 303.030303030303 318.1818181818182 L 287.8787878787879 318.1818181818182 Z M 303.03030303030306 303.03030303030306 L 318.1818181818182 303.03030303030306 L 318.1818181818182 318.1818181818182 L 303.03030303030306 318.1818181818182 Z M 318.1818181818182 303.03030303030306 L 333.3333333333333 303.03030303030306 L 333.3333333333333 318.1818181818182 L 318.1818181818182 318.1818181818182 Z M 333.33333333333337 303.03030303030306 L 348.4848484848485 303.03030303030306 L 348.4848484848485 318.1818181818182 L 333.33333333333337 318.1818181818182 Z M 348.4848484848485 303.03030303030306 L 363.6363636363636 303.03030303030306 L 363.6363636363636 318.1818181818182 L 348.4848484848485 318.1818181818182 Z M 363.6363636363637 303.03030303030306 L 378.7878787878788 303.03030303030306 L 378.7878787878788 318.1818181818182 L 363.6363636363637 318.1818181818182 Z M 378.7878787878788 303.03030303030306 L 393.93939393939394 303.03030303030306 L 393.93939393939394 318.1818181818182 L 378.7878787878788 318.1818181818182 Z M 393.939393939394 303.03030303030306 L 409.0909090909091 303.03030303030306 L 409.0909090909091 318.1818181818182 L 393.939393939394 318.1818181818182 Z M 409.0909090909091 303.03030303030306 L 424.24242424242425 303.03030303030306 L 424.24242424242425 318.1818181818182 L 409.0909090909091 318.1818181818182 Z M 424.24242424242425 303.03030303030306 L 439.3939393939394 303.03030303030306 L 439.3939393939394 318.1818181818182 L 424.24242424242425 318.1818181818182 Z M 181.8181818181818 318.1818181818182 L 196.96969696969697 318.1818181818182 L 196.96969696969697 333.3333333333333 L 181.8181818181818 333.3333333333333 Z M 196.969696969697 318.1818181818182 L 212.12121212121215 318.1818181818182 L 212.12121212121215 333.3333333333333 L 196.969696969697 333.3333333333333 Z M 242.42424242424244 318.1818181818182 L 257.57575757575756 318.1818181818182 L 257.57575757575756 333.3333333333333 L 242.42424242424244 333.3333333333333 Z M 257.57575757575756 318.1818181818182 L 272.7272727272727 318.1818181818182 L 272.7272727272727 333.3333333333333 L 257.57575757575756 333.3333333333333 Z M 272.72727272727275 318.1818181818182 L 287.8787878787879 318.1818181818182 L 287.8787878787879 333.3333333333333 L 272.72727272727275 333.3333333333333 Z M 303.03030303030306 318.1818181818182 L 318.1818181818182 318.1818181818182 L 318.1818181818182 333.3333333333333 L 303.03030303030306 333.3333333333333 Z M 363.6363636363637 318.1818181818182 L 378.7878787878788 318.1818181818182 L 378.7878787878788 333.3333333333333 L 363.6363636363637 333.3333333333333 Z M 409.0909090909091 318.1818181818182 L 424.24242424242425 318.1818181818182 L 424.24242424242425 333.3333333333333 L 409.0909090909091 333.3333333333333 Z M 424.24242424242425 318.1818181818182 L 439.3939393939394 318.1818181818182 L 439.3939393939394 333.3333333333333 L 424.24242424242425 333.3333333333333 Z M 196.969696969697 333.33333333333337 L 212.12121212121215 333.33333333333337 L 212.12121212121215 348.4848484848485 L 196.969696969697 348.4848484848485 Z M 212.12121212121212 333.33333333333337 L 227.27272727272728 333.33333333333337 L 227.27272727272728 348.4848484848485 L 212.12121212121212 348.4848484848485 Z M 257.57575757575756 333.33333333333337 L 272.7272727272727 333.33333333333337 L 272.7272727272727 348.4848484848485 L 257.57575757575756 348.4848484848485 Z M 272.72727272727275 333.33333333333337 L 287.8787878787879 333.33333333333337 L 287.8787878787879 348.4848484848485 L 272.72727272727275 348.4848484848485 Z M 287.8787878787879 333.33333333333337 L 303.030303030303 333.33333333333337 L 303.030303030303 348.4848484848485 L 287.8787878787879 348.4848484848485 Z M 303.03030303030306 333.33333333333337 L 318.1818181818182 333.33333333333337 L 318.1818181818182 348.4848484848485 L 303.03030303030306 348.4848484848485 Z M 333.33333333333337 333.33333333333337 L 348.4848484848485 333.33333333333337 L 348.4848484848485 348.4848484848485 L 333.33333333333337 348.4848484848485 Z M 363.6363636363637 333.33333333333337 L 378.7878787878788 333.33333333333337 L 378.7878787878788 348.4848484848485 L 363.6363636363637 348.4848484848485 Z M 378.7878787878788 333.33333333333337 L 393.93939393939394 333.33333333333337 L 393.93939393939394 348.4848484848485 L 378.7878787878788 348.4848484848485 Z M 393.939393939394 333.33333333333337 L 409.0909090909091 333.33333333333337 L 409.0909090909091 348.4848484848485 L 393.939393939394 348.4848484848485 Z M 409.0909090909091 333.33333333333337 L 424.24242424242425 333.33333333333337 L 424.24242424242425 348.4848484848485 L 409.0909090909091 348.4848484848485 Z M 424.24242424242425 333.33333333333337 L 439.3939393939394 333.33333333333337 L 439.3939393939394 348.4848484848485 L 424.24242424242425 348.4848484848485 Z M 181.8181818181818 348.4848484848485 L 196.96969696969697 348.4848484848485 L 196.96969696969697 363.6363636363636 L 181.8181818181818 363.6363636363636 Z M 196.969696969697 348.4848484848485 L 212.12121212121215 348.4848484848485 L 212.12121212121215 363.6363636363636 L 196.969696969697 363.6363636363636 Z M 212.12121212121212 348.4848484848485 L 227.27272727272728 348.4848484848485 L 227.27272727272728 363.6363636363636 L 212.12121212121212 363.6363636363636 Z M 242.42424242424244 348.4848484848485 L 257.57575757575756 348.4848484848485 L 257.57575757575756 363.6363636363636 L 242.42424242424244 363.6363636363636 Z M 257.57575757575756 348.4848484848485 L 272.7272727272727 348.4848484848485 L 272.7272727272727 363.6363636363636 L 257.57575757575756 363.6363636363636 Z M 303.03030303030306 348.4848484848485 L 318.1818181818182 348.4848484848485 L 318.1818181818182 363.6363636363636 L 303.03030303030306 363.6363636363636 Z M 363.6363636363637 348.4848484848485 L 378.7878787878788 348.4848484848485 L 378.7878787878788 363.6363636363636 L 363.6363636363637 363.6363636363636 Z M 409.0909090909091 348.4848484848485 L 424.24242424242425 348.4848484848485 L 424.24242424242425 363.6363636363636 L 409.0909090909091 363.6363636363636 Z M 424.24242424242425 348.4848484848485 L 439.3939393939394 348.4848484848485 L 439.3939393939394 363.6363636363636 L 424.24242424242425 363.6363636363636 Z M 181.8181818181818 363.6363636363637 L 196.96969696969697 363.6363636363637 L 196.96969696969697 378.7878787878788 L 181.8181818181818 378.7878787878788 Z M 196.969696969697 363.6363636363637 L 212.12121212121215 363.6363636363637 L 212.12121212121215 378.7878787878788 L 196.969696969697 378.7878787878788 Z M 242.42424242424244 363.6363636363637 L 257.57575757575756 363.6363636363637 L 257.57575757575756 378.7878787878788 L 242.42424242424244 378.7878787878788 Z M 272.72727272727275 363.6363636363637 L 287.8787878787879 363.6363636363637 L 287.8787878787879 378.7878787878788 L 272.72727272727275 378.7878787878788 Z M 287.8787878787879 363.6363636363637 L 303.030303030303 363.6363636363637 L 303.030303030303 378.7878787878788 L 287.8787878787879 378.7878787878788 Z M 303.03030303030306 363.6363636363637 L 318.1818181818182 363.6363636363637 L 318.1818181818182 378.7878787878788 L 303.03030303030306 378.7878787878788 Z M 318.1818181818182 363.6363636363637 L 333.3333333333333 363.6363636363637 L 333.3333333333333 378.7878787878788 L 318.1818181818182 378.7878787878788 Z M 333.33333333333337 363.6363636363637 L 348.4848484848485 363.6363636363637 L 348.4848484848485 378.7878787878788 L 333.33333333333337 378.7878787878788 Z M 348.4848484848485 363.6363636363637 L 363.6363636363636 363.6363636363637 L 363.6363636363636 378.7878787878788 L 348.4848484848485 378.7878787878788 Z M 363.6363636363637 363.6363636363637 L 378.7878787878788 363.6363636363637 L 378.7878787878788 378.7878787878788 L 363.6363636363637 378.7878787878788 Z M 378.7878787878788 363.6363636363637 L 393.93939393939394 363.6363636363637 L 393.93939393939394 378.7878787878788 L 378.7878787878788 378.7878787878788 Z M 393.939393939394 363.6363636363637 L 409.0909090909091 363.6363636363637 L 409.0909090909091 378.7878787878788 L 393.939393939394 378.7878787878788 Z M 424.24242424242425 363.6363636363637 L 439.3939393939394 363.6363636363637 L 439.3939393939394 378.7878787878788 L 424.24242424242425 378.7878787878788 Z M 181.8181818181818 378.7878787878788 L 196.96969696969697 378.7878787878788 L 196.96969696969697 393.93939393939394 L 181.8181818181818 393.93939393939394 Z M 196.969696969697 378.7878787878788 L 212.12121212121215 378.7878787878788 L 212.12121212121215 393.93939393939394 L 196.969696969697 393.93939393939394 Z M 212.12121212121212 378.7878787878788 L 227.27272727272728 378.7878787878788 L 227.27272727272728 393.93939393939394 L 212.12121212121212 393.93939393939394 Z M 287.8787878787879 378.7878787878788 L 303.030303030303 378.7878787878788 L 303.030303030303 393.93939393939394 L 287.8787878787879 393.93939393939394 Z M 318.1818181818182 378.7878787878788 L 333.3333333333333 378.7878787878788 L 333.3333333333333 393.93939393939394 L 318.1818181818182 393.93939393939394 Z M 333.33333333333337 378.7878787878788 L 348.4848484848485 378.7878787878788 L 348.4848484848485 393.93939393939394 L 333.33333333333337 393.93939393939394 Z M 363.6363636363637 378.7878787878788 L 378.7878787878788 378.7878787878788 L 378.7878787878788 393.93939393939394 L 363.6363636363637 393.93939393939394 Z M 378.7878787878788 378.7878787878788 L 393.93939393939394 378.7878787878788 L 393.93939393939394 393.93939393939394 L 378.7878787878788 393.93939393939394 Z M 393.939393939394 378.7878787878788 L 409.0909090909091 378.7878787878788 L 409.0909090909091 393.93939393939394 L 393.939393939394 393.93939393939394 Z M 409.0909090909091 378.7878787878788 L 424.24242424242425 378.7878787878788 L 424.24242424242425 393.93939393939394 L 409.0909090909091 393.93939393939394 Z M 424.24242424242425 378.7878787878788 L 439.3939393939394 378.7878787878788 L 439.3939393939394 393.93939393939394 L 424.24242424242425 393.93939393939394 Z M 181.8181818181818 393.939393939394 L 196.96969696969697 393.939393939394 L 196.96969696969697 409.0909090909091 L 181.8181818181818 409.0909090909091 Z M 196.969696969697 393.939393939394 L 212.12121212121215 393.939393939394 L 212.12121212121215 409.0909090909091 L 196.969696969697 409.0909090909091 Z M 227.2727272727273 393.939393939394 L 242.42424242424246 393.939393939394 L 242.42424242424246 409.0909090909091 L 227.2727272727273 409.0909090909091 Z M 242.42424242424244 393.939393939394 L 257.57575757575756 393.939393939394 L 257.57575757575756 409.0909090909091 L 242.42424242424244 409.0909090909091 Z M 287.8787878787879 393.939393939394 L 303.030303030303 393.939393939394 L 303.030303030303 409.0909090909091 L 287.8787878787879 409.0909090909091 Z M 348.4848484848485 393.939393939394 L 363.6363636363636 393.939393939394 L 363.6363636363636 409.0909090909091 L 348.4848484848485 409.0909090909091 Z M 424.24242424242425 393.939393939394 L 439.3939393939394 393.939393939394 L 439.3939393939394 409.0909090909091 L 424.24242424242425 409.0909090909091 Z M 196.969696969697 409.0909090909091 L 212.12121212121215 409.0909090909091 L 212.12121212121215 424.24242424242425 L 196.969696969697 424.24242424242425 Z M 227.2727272727273 409.0909090909091 L 242.42424242424246 409.0909090909091 L 242.42424242424246 424.24242424242425 L 227.2727272727273 424.24242424242425 Z M 272.72727272727275 409.0909090909091 L 287.8787878787879 409.0909090909091 L 287.8787878787879 424.24242424242425 L 272.72727272727275 424.24242424242425 Z M 287.8787878787879 409.0909090909091 L 303.030303030303 409.0909090909091 L 303.030303030303 424.24242424242425 L 287.8787878787879 424.24242424242425 Z M 303.03030303030306 409.0909090909091 L 318.1818181818182 409.0909090909091 L 318.1818181818182 424.24242424242425 L 303.03030303030306 424.24242424242425 Z M 318.1818181818182 409.0909090909091 L 333.3333333333333 409.0909090909091 L 333.3333333333333 424.24242424242425 L 318.1818181818182 424.24242424242425 Z M 348.4848484848485 409.0909090909091 L 363.6363636363636 409.0909090909091 L 363.6363636363636 424.24242424242425 L 348.4848484848485 424.24242424242425 Z M 363.6363636363637 409.0909090909091 L 378.7878787878788 409.0909090909091 L 378.7878787878788 424.24242424242425 L 363.6363636363637 424.24242424242425 Z M 424.24242424242425 409.0909090909091 L 439.3939393939394 409.0909090909091 L 439.3939393939394 424.24242424242425 L 424.24242424242425 424.24242424242425 Z M 181.8181818181818 424.24242424242425 L 196.96969696969697 424.24242424242425 L 196.96969696969697 439.3939393939394 L 181.8181818181818 439.3939393939394 Z M 196.969696969697 424.24242424242425 L 212.12121212121215 424.24242424242425 L 212.12121212121215 439.3939393939394 L 196.969696969697 439.3939393939394 Z M 212.12121212121212 424.24242424242425 L 227.27272727272728 424.24242424242425 L 227.27272727272728 439.3939393939394 L 212.12121212121212 439.3939393939394 Z M 227.2727272727273 424.24242424242425 L 242.42424242424246 424.24242424242425 L 242.42424242424246 439.3939393939394 L 227.2727272727273 439.3939393939394 Z M 287.8787878787879 424.24242424242425 L 303.030303030303 424.24242424242425 L 303.030303030303 439.3939393939394 L 287.8787878787879 439.3939393939394 Z M 378.7878787878788 424.24242424242425 L 393.93939393939394 424.24242424242425 L 393.93939393939394 439.3939393939394 L 378.7878787878788 439.3939393939394 Z M 393.939393939394 424.24242424242425 L 409.0909090909091 424.24242424242425 L 409.0909090909091 439.3939393939394 L 393.939393939394 439.3939393939394 Z M 409.0909090909091 424.24242424242425 L 424.24242424242425 424.24242424242425 L 424.24242424242425 439.3939393939394 L 409.0909090909091 439.3939393939394 Z M 424.24242424242425 424.24242424242425 L 439.3939393939394 424.24242424242425 L 439.3939393939394 439.3939393939394 L 424.24242424242425 439.3939393939394 Z" fill="#000000" fill-rule="evenodd"/>
<path d="M 472.17188 1.3339844 C 457.13464 18.960538 449.98226 41.252903 433.91016 57.945312 C 412.86273 79.925964 381.34109 96.830752 356.24414 113.625 C 346.29165 120.26475 334.57334 131.25179 322.33594 133.22656 C 303.566 136.33672 306.67624 138.2024 293.71484 120.88672 C 277.33222 98.906065 263.12717 73.605914 238.75977 60.644531 C 233.16157 84.91009 239.59202 106.47961 232.33008 131.04883 C 224.24366 158.42513 213.24782 184.76045 199.45508 209.75 C 192.61274 222.0894 183.90463 242.93436 172.70117 251.64258 C 169.8008 255.47599 166.89259 259.21524 163.99219 263.04883 C 154.35077 258.90435 144.70939 254.65153 135.06055 250.5 C 123.65416 245.62504 76.784672 216.18118 65.587891 230.17578 C 58.535788 239.09394 90.786368 271.95908 94.621094 284.60938 C 102.60623 310.94504 101.7754 340.59853 102.50586 367.76562 C 103.02662 388.19089 111.21503 430.18601 92.865234 443.87695 C 70.67536 460.36065 25.780334 445.33094 -0.35351562 461.91602 C 16.860859 477.77779 38.529448 484.62698 55.634766 500.58984 C 76.891427 520.60407 95.039353 546.73674 109.86719 571.82812 C 116.91927 583.64669 123.66043 595.9864 129.35938 608.63672 C 138.27755 628.43985 135.89146 623.46468 124.59375 637.25781 C 104.79062 661.21415 71.814378 666.49956 59.164062 696.77734 C 76.580825 700.82056 90.064624 695.43202 107.27734 696.77734 C 127.91372 698.43369 150.41366 708.80541 169.18359 716.68945 C 191.16425 725.8174 212.11264 737.0148 232.125 750.07617 C 237.7232 753.70703 259.60284 765.42447 261.1582 770.8125 C 262.50351 775.57899 251.30604 793.72623 249.12891 798.60156 C 243.53071 811.66424 221.75283 846.50578 225.79492 860.40039 C 232.22506 882.27918 247.77628 858.32339 258.98047 850.75781 C 293.50959 827.32365 347.63433 833.34142 387.14062 832.4082 C 400.20329 832.09716 430.479 825.66832 440.64258 835.51953 C 450.70359 845.26946 446.34275 892.96242 448.93945 907.27734 C 451.73856 922.82802 452.88228 941.4941 469.26562 926.45703 C 481.81465 915.05066 486.47879 891.71827 500.0625 878.13477 C 528.78493 849.41233 568.08122 819.5464 606.6543 805.96289 C 648.64915 791.23673 660.15634 858.11976 693.65039 876.26758 C 700.60123 851.37987 691.88536 828.15545 700.91211 802.13086 C 711.59506 771.23091 726.93757 739.19064 743.00781 710.7793 C 748.08535 701.86112 754.20453 688.06687 762.5 682.26758 C 776.29312 672.51768 778.88253 678.01458 797.13086 685.89844 C 820.15397 695.85092 842.65434 709.64432 867.8457 707.4668 C 862.24752 685.99902 846.68954 672.62635 839.95703 651.16602 C 830.4169 620.67899 827.4082 586.45996 827.4082 554.83789 C 827.4082 528.50221 822.22251 500.50507 849.07812 491.68945 C 877.80055 482.35892 907.14259 492.10078 933.6875 475.51562 C 929.96979 470.84326 925.60825 466.59738 920.8418 462.86523 L 920.8457 462.86523 C 897.4115 448.44995 883.20481 442.95344 865.99023 419.72852 C 848.15387 395.67218 830.73786 370.89047 814.76758 345.58984 C 796.3091 316.2453 792.26634 311.78389 820.4668 290.8457 C 840.69024 275.80846 863.3949 263.57569 874.58984 240.76367 C 851.46674 233.92135 829.38431 240.76362 805.21875 234.64453 C 777.0185 227.49114 749.11911 214.94239 723.92773 200.63672 C 706.19991 190.57573 676.8494 178.23611 674.67188 156.67578 C 671.66297 127.5423 709.30266 99.643179 705.88086 67.087891 C 683.37989 72.997171 669.69473 89.379851 646.77344 95.810547 C 615.5643 104.51893 582.17583 108.04796 549.82422 107.93945 C 516.95045 107.83823 495.3894 112.81561 489.06055 78.496094 C 483.99024 51.104992 488.86545 24.45709 472.17188 1.3339844 z M 466.66602 151.98438 A 314.68199 314.68199 0 0 1 781.34961 466.66602 A 314.68199 314.68199 0 0 1 466.66602 781.34961 A 314.68199 314.68199 0 0 1 151.98438 466.66602 A 314.68199 314.68199 0 0 1 466.66602 151.98438 z" fill="#000000" fill-rule="evenodd" transform="translate(60.60606060606061,60.60606060606061) scale(0.15151515151515152)"/>
<path d="M 472.17188 1.3339844 C 457.13464 18.960538 449.98226 41.252903 433.91016 57.945312 C 412.86273 79.925964 381.34109 96.830752 356.24414 113.625 C 346.29165 120.26475 334.57334 131.25179 322.33594 133.22656 C 303.566 136.33672 306.67624 138.2024 293.71484 120.88672 C 277.33222 98.906065 263.12717 73.605914 238.75977 60.644531 C 233.16157 84.91009 239.59202 106.47961 232.33008 131.04883 C 224.24366 158.42513 213.24782 184.76045 199.45508 209.75 C 192.61274 222.0894 183.90463 242.93436 172.70117 251.64258 C 169.8008 255.47599 166.89259 259.21524 163.99219 263.04883 C 154.35077 258.90435 144.70939 254.65153 135.06055 250.5 C 123.65416 245.62504 76.784672 216.18118 65.587891 230.17578 C 58.535788 239.09394 90.786368 271.95908 94.621094 284.60938 C 102.60623 310.94504 101.7754 340.59853 102.50586 367.76562 C 103.02662 388.19089 111.21503 430.18601 92.865234 443.87695 C 70.67536 460.36065 25.780334 445.33094 -0.35351562 461.91602 C 16.860859 477.77779 38.529448 484.62698 55.634766 500.58984 C 76.891427 520.60407 95.039353 546.73674 109.86719 571.82812 C 116.91927 583.64669 123.66043 595.9864 129.35938 608.63672 C 138.27755 628.43985 135.89146 623.46468 124.59375 637.25781 C 104.79062 661.21415 71.814378 666.49956 59.164062 696.77734 C 76.580825 700.82056 90.064624 695.43202 107.27734 696.77734 C 127.91372 698.43369 150.41366 708.80541 169.18359 716.68945 C 191.16425 725.8174 212.11264 737.0148 232.125 750.07617 C 237.7232 753.70703 259.60284 765.42447 261.1582 770.8125 C 262.50351 775.57899 251.30604 793.72623 249.12891 798.60156 C 243.53071 811.66424 221.75283 846.50578 225.79492 860.40039 C 232.22506 882.27918 247.77628 858.32339 258.98047 850.75781 C 293.50959 827.32365 347.63433 833.34142 387.14062 832.4082 C 400.20329 832.09716 430.479 825.66832 440.64258 835.51953 C 450.70359 845.26946 446.34275 892.96242 448.93945 907.27734 C 451.73856 922.82802 452.88228 941.4941 469.26562 926.45703 C 481.81465 915.05066 486.47879 891.71827 500.0625 878.13477 C 528.78493 849.41233 568.08122 819.5464 606.6543 805.96289 C 648.64915 791.23673 660.15634 858.11976 693.65039 876.26758 C 700.60123 851.37987 691.88536 828.15545 700.91211 802.13086 C 711.59506 771.23091 726.93757 739.19064 743.00781 710.7793 C 748.08535 701.86112 754.20453 688.06687 762.5 682.26758 C 776.29312 672.51768 778.88253 678.01458 797.13086 685.89844 C 820.15397 695.85092 842.65434 709.64432 867.8457 707.4668 C 862.24752 685.99902 846.68954 672.62635 839.95703 651.16602 C 830.4169 620.67899 827.4082 586.45996 827.4082 554.83789 C 827.4082 528.50221 822.22251 500.50507 849.07812 491.68945 C 877.80055 482.35892 907.14259 492.10078 933.6875 475.51562 C 929.96979 470.84326 925.60825 466.59738 920.8418 462.86523 L 920.8457 462.86523 C 897.4115 448.44995 883.20481 442.95344 865.99023 419.72852 C 848.15387 395.67218 830.73786 370.89047 814.76758 345.58984 C 796.3091 316.2453 792.26634 311.78389 820.4668 290.8457 C 840.69024 275.80846 863.3949 263.57569 874.58984 240.76367 C 851.46674 233.92135 829.38431 240.76362 805.21875 234.64453 C 777.0185 227.49114 749.11911 214.94239 723.92773 200.63672 C 706.19991 190.57573 676.8494 178.23611 674.67188 156.67578 C 671.66297 127.5423 709.30266 99.643179 705.88086 67.087891 C 683.37989 72.997171 669.69473 89.379851 646.77344 95.810547 C 615.5643 104.51893 582.17583 108.04796 549.82422 107.93945 C 516.95045 107.83823 495.3894 112.81561 489.06055 78.496094 C 483.99024 51.104992 488.86545 24.45709 472.17188 1.3339844 z M 466.66602 151.98438 A 314.68199 314.68199 0 0 1 781.34961 466.66602 A 314.68199 314.68199 0 0 1 466.66602 781.34961 A 314.68199 314.68199 0 0 1 151.98438 466.66602 A 314.68199 314.68199 0 0 1 466.66602 151.98438 z" fill="#FFFFFF" fill-rule="evenodd" transform="translate(75.75757575757576,75.75757575757576) scale(0.10822510822510824)"/>
<path d="m 466.66602,151.98438 c 173.79199,0 314.68359,140.8916 314.68359,314.68164 0,173.79004 -140.8916,314.68359 -314.68359,314.68359 C 292.87597,781.34961 151.98438,640.45766 151.98438,466.66602 c 0,-173.79004 140.89159,-314.68164 314.68164,-314.68164 z" fill="#000000" transform="translate(90.9090909090909,90.9090909090909) scale(0.06493506493506493)"/>
<path d="M 472.17188 1.3339844 C 457.13464 18.960538 449.98226 41.252903 433.91016 57.945312 C 412.86273 79.925964 381.34109 96.830752 356.24414 113.625 C 346.29165 120.26475 334.57334 131.25179 322.33594 133.22656 C 303.566 136.33672 306.67624 138.2024 293.71484 120.88672 C 277.33222 98.906065 263.12717 73.605914 238.75977 60.644531 C 233.16157 84.91009 239.59202 106.47961 232.33008 131.04883 C 224.24366 158.42513 213.24782 184.76045 199.45508 209.75 C 192.61274 222.0894 183.90463 242.93436 172.70117 251.64258 C 169.8008 255.47599 166.89259 259.21524 163.99219 263.04883 C 154.35077 258.90435 144.70939 254.65153 135.06055 250.5 C 123.65416 245.62504 76.784672 216.18118 65.587891 230.17578 C 58.535788 239.09394 90.786368 271.95908 94.621094 284.60938 C 102.60623 310.94504 101.7754 340.59853 102.50586 367.76562 C 103.02662 388.19089 111.21503 430.18601 92.865234 443.87695 C 70.67536 460.36065 25.780334 445.33094 -0.35351562 461.91602 C 16.860859 477.77779 38.529448 484.62698 55.634766 500.58984 C 76.891427 520.60407 95.039353 546.73674 109.86719 571.82812 C 116.91927 583.64669 123.66043 595.9864 129.35938 608.63672 C 138.27755 628.43985 135.89146 623.46468 124.59375 637.25781 C 104.79062 661.21415 71.814378 666.49956 59.164062 696.77734 C 76.580825 700.82056 90.064624 695.43202 107.27734 696.77734 C 127.91372 698.43369 150.41366 708.80541 169.18359 716.68945 C 191.16425 725.8174 212.11264 737.0148 232.125 750.07617 C 237.7232 753.70703 259.60284 765.42447 261.1582 770.8125 C 262.50351 775.57899 251.30604 793.72623 249.12891 798.60156 C 243.53071 811.66424 221.75283 846.50578 225.79492 860.40039 C 232.22506 882.27918 247.77628 858.32339 258.98047 850.75781 C 293.50959 827.32365 347.63433 833.34142 387.14062 832.4082 C 400.20329 832.09716 430.479 825.66832 440.64258 835.51953 C 450.70359 845.26946 446.34275 892.96242 448.93945 907.27734 C 451.73856 922.82802 452.88228 941.4941 469.26562 926.45703 C 481.81465 915.05066 486.47879 891.71827 500.0625 878.13477 C 528.78493 849.41233 568.08122 819.5464 606.6543 805.96289 C 648.64915 791.23673 660.15634 858.11976 693.65039 876.26758 C 700.60123 851.37987 691.88536 828.15545 700.91211 802.13086 C 711.59506 771.23091 726.93757 739.19064 743.00781 710.7793 C 748.08535 701.86112 754.20453 688.06687 762.5 682.26758 C 776.29312 672.51768 778.88253 678.01458 797.13086 685.89844 C 820.15397 695.85092 842.65434 709.64432 867.8457 707.4668 C 862.24752 685.99902 846.68954 672.62635 839.95703 651.16602 C 830.4169 620.67899 827.4082 586.45996 827.4082 554.83789 C 827.4082 528.50221 822.22251 500.50507 849.07812 491.68945 C 877.80055 482.35892 907.14259 492.10078 933.6875 475.51562 C 929.96979 470.84326 925.60825 466.59738 920.8418 462.86523 L 920.8457 462.86523 C 897.4115 448.44995 883.20481 442.95344 865.99023 419.72852 C 848.15387 395.67218 830.73786 370.89047 814.76758 345.58984 C 796.3091 316.2453 792.26634 311.78389 820.4668 290.8457 C 840.69024 275.80846 863.3949 263.57569 874.58984 240.76367 C 851.46674 233.92135 829.38431 240.76362 805.21875 234.64453 C 777.0185 227.49114 749.11911 214.94239 723.92773 200.63672 C 706.19991 190.57573 676.8494 178.23611 674.67188 156.67578 C 671.66297 127.5423 709.30266 99.643179 705.88086 67.087891 C 683.37989 72.997171 669.69473 89.379851 646.77344 95.810547 C 615.5643 104.51893 582.17583 108.04796 549.82422 107.93945 C 516.95045 107.83823 495.3894 112.81561 489.06055 78.496094 C 483.99024 51.104992 488.86545 24.45709 472.17188 1.3339844 z M 466.66602 151.98438 A 314.68199 314.68199 0 0 1 781.34961 466.66602 A 314.68199 314.68199 0 0 1 466.66602 781.34961 A 314.68199 314.68199 0 0 1 151.98438 466.66602 A 314.68199 314.68199 0 0 1 466.66602 151.98438 z" fill="#000000" fill-rule="evenodd" transform="translate(333.33333333333337,60.60606060606061) scale(0.15151515151515152)"/>
<path d="M 472.17188 1.3339844 C 457.13464 18.960538 449.98226 41.252903 433.91016 57.945312 C 412.86273 79.925964 381.34109 96.830752 356.24414 113.625 C 346.29165 120.26475 334.57334 131.25179 322.33594 133.22656 C 303.566 136.33672 306.67624 138.2024 293.71484 120.88672 C 277.33222 98.906065 263.12717 73.605914 238.75977 60.644531 C 233.16157 84.91009 239.59202 106.47961 232.33008 131.04883 C 224.24366 158.42513 213.24782 184.76045 199.45508 209.75 C 192.61274 222.0894 183.90463 242.93436 172.70117 251.64258 C 169.8008 255.47599 166.89259 259.21524 163.99219 263.04883 C 154.35077 258.90435 144.70939 254.65153 135.06055 250.5 C 123.65416 245.62504 76.784672 216.18118 65.587891 230.17578 C 58.535788 239.09394 90.786368 271.95908 94.621094 284.60938 C 102.60623 310.94504 101.7754 340.59853 102.50586 367.76562 C 103.02662 388.19089 111.21503 430.18601 92.865234 443.87695 C 70.67536 460.36065 25.780334 445.33094 -0.35351562 461.91602 C 16.860859 477.77779 38.529448 484.62698 55.634766 500.58984 C 76.891427 520.60407 95.039353 546.73674 109.86719 571.82812 C 116.91927 583.64669 123.66043 595.9864 129.35938 608.63672 C 138.27755 628.43985 135.89146 623.46468 124.59375 637.25781 C 104.79062 661.21415 71.814378 666.49956 59.164062 696.77734 C 76.580825 700.82056 90.064624 695.43202 107.27734 696.77734 C 127.91372 698.43369 150.41366 708.80541 169.18359 716.68945 C 191.16425 725.8174 212.11264 737.0148 232.125 750.07617 C 237.7232 753.70703 259.60284 765.42447 261.1582 770.8125 C 262.50351 775.57899 251.30604 793.72623 249.12891 798.60156 C 243.53071 811.66424 221.75283 846.50578 225.79492 860.40039 C 232.22506 882.27918 247.77628 858.32339 258.98047 850.75781 C 293.50959 827.32365 347.63433 833.34142 387.14062 832.4082 C 400.20329 832.09716 430.479 825.66832 440.64258 835.51953 C 450.70359 845.26946 446.34275 892.96242 448.93945 907.27734 C 451.73856 922.82802 452.88228 941.4941 469.26562 926.45703 C 481.81465 915.05066 486.47879 891.71827 500.0625 878.13477 C 528.78493 849.41233 568.08122 819.5464 606.6543 805.96289 C 648.64915 791.23673 660.15634 858.11976 693.65039 876.26758 C 700.60123 851.37987 691.88536 828.15545 700.91211 802.13086 C 711.59506 771.23091 726.93757 739.19064 743.00781 710.7793 C 748.08535 701.86112 754.20453 688.06687 762.5 682.26758 C 776.29312 672.51768 778.88253 678.01458 797.13086 685.89844 C 820.15397 695.85092 842.65434 709.64432 867.8457 707.4668 C 862.24752 685.99902 846.68954 672.62635 839.95703 651.16602 C 830.4169 620.67899 827.4082 586.45996 827.4082 554.83789 C 827.4082 528.50221 822.22251 500.50507 849.07812 491.68945 C 877.80055 482.35892 907.14259 492.10078 933.6875 475.51562 C 929.96979 470.84326 925.60825 466.59738 920.8418 462.86523 L 920.8457 462.86523 C 897.4115 448.44995 883.20481 442.95344 865.99023 419.72852 C 848.15387 395.67218 830.73786 370.89047 814.76758 345.58984 C 796.3091 316.2453 792.26634 311.78389 820.4668 290.8457 C 840.69024 275.80846 863.3949 263.57569 874.58984 240.76367 C 851.46674 233.92135 829.38431 240.76362 805.21875 234.64453 C 777.0185 227.49114 749.11911 214.94239 723.92773 200.63672 C 706.19991 190.57573 676.8494 178.23611 674.67188 156.67578 C 671.66297 127.5423 709.30266 99.643179 705.88086 67.087891 C 683.37989 72.997171 669.69473 89.379851 646.77344 95.810547 C 615.5643 104.51893 582.17583 108.04796 549.82422 107.93945 C 516.95045 107.83823 495.3894 112.81561 489.06055 78.496094 C 483.99024 51.104992 488.86545 24.45709 472.17188 1.3339844 z M 466.66602 151.98438 A 314.68199 314.68199 0 0 1 781.34961 466.66602 A 314.68199 314.68199 0 0 1 466.66602 781.34961 A 314.68199 314.68199 0 0 1 151.98438 466.66602 A 314.68199 314.68199 0 0 1 466.66602 151.98438 z" fill="#FFFFFF" fill-rule="evenodd" transform="translate(348.4848484848485,75.75757575757576) scale(0.10822510822510824)"/>
<path d="m 466.66602,151.98438 c 173.79199,0 314.68359,140.8916 314.68359,314.68164 0,173.79004 -140.8916,314.68359 -314.68359,314.68359 C 292.87597,781.34961 151.98438,640.45766 151.98438,466.66602 c 0,-173.79004 140.89159,-314.68164 314.68164,-314.68164 z" fill="#000000" transform="translate(363.6363636363637,90.9090909090909) scale(0.06493506493506493)"/>
<path d="M 472.17188 1.3339844 C 457.13464 18.960538 449.98226 41.252903 433.91016 57.945312 C 412.86273 79.925964 381.34109 96.830752 356.24414 113.625 C 346.29165 120.26475 334.57334 131.25179 322.33594 133.22656 C 303.566 136.33672 306.67624 138.2024 293.71484 120.88672 C 277.33222 98.906065 263.12717 73.605914 238.75977 60.644531 C 233.16157 84.91009 239.59202 106.47961 232.33008 131.04883 C 224.24366 158.42513 213.24782 184.76045 199.45508 209.75 C 192.61274 222.0894 183.90463 242.93436 172.70117 251.64258 C 169.8008 255.47599 166.89259 259.21524 163.99219 263.04883 C 154.35077 258.90435 144.70939 254.65153 135.06055 250.5 C 123.65416 245.62504 76.784672 216.18118 65.587891 230.17578 C 58.535788 239.09394 90.786368 271.95908 94.621094 284.60938 C 102.60623 310.94504 101.7754 340.59853 102.50586 367.76562 C 103.02662 388.19089 111.21503 430.18601 92.865234 443.87695 C 70.67536 460.36065 25.780334 445.33094 -0.35351562 461.91602 C 16.860859 477.77779 38.529448 484.62698 55.634766 500.58984 C 76.891427 520.60407 95.039353 546.73674 109.86719 571.82812 C 116.91927 583.64669 123.66043 595.9864 129.35938 608.63672 C 138.27755 628.43985 135.89146 623.46468 124.59375 637.25781 C 104.79062 661.21415 71.814378 666.49956 59.164062 696.77734 C 76.580825 700.82056 90.064624 695.43202 107.27734 696.77734 C 127.91372 698.43369 150.41366 708.80541 169.18359 716.68945 C 191.16425 725.8174 212.11264 737.0148 232.125 750.07617 C 237.7232 753.70703 259.60284 765.42447 261.1582 770.8125 C 262.50351 775.57899 251.30604 793.72623 249.12891 798.60156 C 243.53071 811.66424 221.75283 846.50578 225.79492 860.40039 C 232.22506 882.27918 247.77628 858.32339 258.98047 850.75781 C 293.50959 827.32365 347.63433 833.34142 387.14062 832.4082 C 400.20329 832.09716 430.479 825.66832 440.64258 835.51953 C 450.70359 845.26946 446.34275 892.96242 448.93945 907.27734 C 451.73856 922.82802 452.88228 941.4941 469.26562 926.45703 C 481.81465 915.05066 486.47879 891.71827 500.0625 878.13477 C 528.78493 849.41233 568.08122 819.5464 606.6543 805.96289 C 648.64915 791.23673 660.15634 858.11976 693.65039 876.26758 C 700.60123 851.37987 691.88536 828.15545 700.91211 802.13086 C 711.59506 771.23091 726.93757 739.19064 743.00781 710.7793 C 748.08535 701.86112 754.20453 688.06687 762.5 682.26758 C 776.29312 672.51768 778.88253 678.01458 797.13086 685.89844 C 820.15397 695.85092 842.65434 709.64432 867.8457 707.4668 C 862.24752 685.99902 846.68954 672.62635 839.95703 651.16602 C 830.4169 620.67899 827.4082 586.45996 827.4082 554.83789 C 827.4082 528.50221 822.22251 500.50507 849.07812 491.68945 C 877.80055 482.35892 907.14259 492.10078 933.6875 475.51562 C 929.96979 470.84326 925.60825 466.59738 920.8418 462.86523 L 920.8457 462.86523 C 897.4115 448.44995 883.20481 442.95344 865.99023 419.72852 C 848.15387 395.67218 830.73786 370.89047 814.76758 345.58984 C 796.3091 316.2453 792.26634 311.78389 820.4668 290.8457 C 840.69024 275.80846 863.3949 263.57569 874.58984 240.76367 C 851.46674 233.92135 829.38431 240.76362 805.21875 234.64453 C 777.0185 227.49114 749.11911 214.94239 723.92773 200.63672 C 706.19991 190.57573 676.8494 178.23611 674.67188 156.67578 C 671.66297 127.5423 709.30266 99.643179 705.88086 67.087891 C 683.37989 72.997171 669.69473 89.379851 646.77344 95.810547 C 615.5643 104.51893 582.17583 108.04796 549.82422 107.93945 C 516.95045 107.83823 495.3894 112.81561 489.06055 78.496094 C 483.99024 51.104992 488.86545 24.45709 472.17188 1.3339844 z M 466.66602 151.98438 A 314.68199 314.68199 0 0 1 781.34961 466.66602 A 314.68199 314.68199 0 0 1 466.66602 781.34961 A 314.68199 314.68199 0 0 1 151.98438 466.66602 A 314.68199 314.68199 0 0 1 466.66602 151.98438 z" fill="#000000" fill-rule="evenodd" transform="translate(60.60606060606061,333.33333333333337) scale(0.15151515151515152)"/>
<path d="M 472.17188 1.3339844 C 457.13464 18.960538 449.98226 41.252903 433.91016 57.945312 C 412.86273 79.925964 381.34109 96.830752 356.24414 113.625 C 346.29165 120.26475 334.57334 131.25179 322.33594 133.22656 C 303.566 136.33672 306.67624 138.2024 293.71484 120.88672 C 277.33222 98.906065 263.12717 73.605914 238.75977 60.644531 C 233.16157 84.91009 239.59202 106.47961 232.33008 131.04883 C 224.24366 158.42513 213.24782 184.76045 199.45508 209.75 C 192.61274 222.0894 183.90463 242.93436 172.70117 251.64258 C 169.8008 255.47599 166.89259 259.21524 163.99219 263.04883 C 154.35077 258.90435 144.70939 254.65153 135.06055 250.5 C 123.65416 245.62504 76.784672 216.18118 65.587891 230.17578 C 58.535788 239.09394 90.786368 271.95908 94.621094 284.60938 C 102.60623 310.94504 101.7754 340.59853 102.50586 367.76562 C 103.02662 388.19089 111.21503 430.18601 92.865234 443.87695 C 70.67536 460.36065 25.780334 445.33094 -0.35351562 461.91602 C 16.860859 477.77779 38.529448 484.62698 55.634766 500.58984 C 76.891427 520.60407 95.039353 546.73674 109.86719 571.82812 C 116.91927 583.64669 123.66043 595.9864 129.35938 608.63672 C 138.27755 628.43985 135.89146 623.46468 124.59375 637.25781 C 104.79062 661.21415 71.814378 666.49956 59.164062 696.77734 C 76.580825 700.82056 90.064624 695.43202 107.27734 696.77734 C 127.91372 698.43369 150.41366 708.80541 169.18359 716.68945 C 191.16425 725.8174 212.11264 737.0148 232.125 750.07617 C 237.7232 753.70703 259.60284 765.42447 261.1582 770.8125 C 262.50351 775.57899 251.30604 793.72623 249.12891 798.60156 C 243.53071 811.66424 221.75283 846.50578 225.79492 860.40039 C 232.22506 882.27918 247.77628 858.32339 258.98047 850.75781 C 293.50959 827.32365 347.63433 833.34142 387.14062 832.4082 C 400.20329 832.09716 430.479 825.66832 440.64258 835.51953 C 450.70359 845.26946 446.34275 892.96242 448.93945 907.27734 C 451.73856 922.82802 452.88228 941.4941 469.26562 926.45703 C 481.81465 915.05066 486.47879 891.71827 500.0625 878.13477 C 528.78493 849.41233 568.08122 819.5464 606.6543 805.96289 C 648.64915 791.23673 660.15634 858.11976 693.65039 876.26758 C 700.60123 851.37987 691.88536 828.15545 700.91211 802.13086 C 711.59506 771.23091 726.93757 739.19064 743.00781 710.7793 C 748.08535 701.86112 754.20453 688.06687 762.5 682.26758 C 776.29312 672.51768 778.88253 678.01458 797.13086 685.89844 C 820.15397 695.85092 842.65434 709.64432 867.8457 707.4668 C 862.24752 685.99902 846.68954 672.62635 839.95703 651.16602 C 830.4169 620.67899 827.4082 586.45996 827.4082 554.83789 C 827.4082 528.50221 822.22251 500.50507 849.07812 491.68945 C 877.80055 482.35892 907.14259 492.10078 933.6875 475.51562 C 929.96979 470.84326 925.60825 466.59738 920.8418 462.86523 L 920.8457 462.86523 C 897.4115 448.44995 883.20481 442.95344 865.99023 419.72852 C 848.15387 395.67218 830.73786 370.89047 814.76758 345.58984 C 796.3091 316.2453 792.26634 311.78389 820.4668 290.8457 C 840.69024 275.80846 863.3949 263.57569 874.58984 240.76367 C 851.46674 233.92135 829.38431 240.76362 805.21875 234.64453 C 777.0185 227.49114 749.11911 214.94239 723.92773 200.63672 C 706.19991 190.57573 676.8494 178.23611 674.67188 156.67578 C 671.66297 127.5423 709.30266 99.643179 705.88086 67.087891 C 683.37989 72.997171 669.69473 89.379851 646.77344 95.810547 C 615.5643 104.51893 582.17583 108.04796 549.82422 107.93945 C 516.95045 107.83823 495.3894 112.81561 489.06055 78.496094 C 483.99024 51.104992 488.86545 24.45709 472.17188 1.3339844 z M 466.66602 151.98438 A 314.68199 314.68199 0 0 1 781.34961 466.66602 A 314.68199 314.68199 0 0 1 466.66602 781.34961 A 314.68199 314.68199 0 0 1 151.98438 466.66602 A 314.68199 314.68199 0 0 1 466.66602 151.98438 z" fill="#FFFFFF" fill-rule="evenodd" transform="translate(75.75757575757576,348.4848484848485) scale(0.10822510822510824)"/>
<path d="m 466.66602,151.98438 c 173.79199,0 314.68359,140.8916 314.68359,314.68164 0,173.79004 -140.8916,314.68359 -314.68359,314.68359 C 292.87597,781.34961 151.98438,640.45766 151.98438,466.66602 c 0,-173.79004 140.89159,-314.68164 314.68164,-314.68164 z" fill="#000000" transform="translate(90.9090909090909,363.6363636363637) scale(0.06493506493506493)"/>
</svg>